<?xml version="1.0" encoding="UTF-8"?>
<svg xmlns="http://www.w3.org/2000/svg" xmlns:xlink="http://www.w3.org/1999/xlink"
     width="800" height="800.0" viewBox="-1.05 -1.05 2.1 2.1">
<defs>
</defs>
<circle cx="0" cy="0" r="1" stroke="none" fill="none" />
<path d="M0.8660254037844387,-0.4999999999999998 A0.2699204251899959,0.2699204251899959,0,0,0,1.0,-1.1102230246251565e-16 A0.26618512907144454,0.26618512907144454,0,0,1,0.8660254037844387,-0.49999999999999983 Z" fill="#cc1616" />
<path d="M0.5000000000000003,-0.8660254037844386 A0.5863481511044912,0.5863481511044912,0,0,0,1.0,-1.1102230246251565e-16 A0.5690030958595202,0.5690030958595202,0,0,1,0.5000000000000004,-0.8660254037844386 Z" fill="#cc1616" />
<path d="M0.0,-0.9999999999999997 A1.027044176280829,1.027044176280829,0,0,0,1.0000000000000004,2.220446049250313e-16 A0.9749855388761415,0.9749855388761415,0,0,1,1.1102230246251565e-16,-1.0000000000000002 Z" fill="#cc1616" />
<path d="M-0.4999999999999998,-0.8660254037844389 A1.8143517650442935,1.8143517650442935,0,0,0,0.9999999999999999,-2.220446049250313e-16 A1.6579642261378846,1.6579642261378846,0,0,1,-0.5,-0.8660254037844386 Z" fill="#cc1616" />
<path d="M-0.8660254037844379,-0.5000000000000004 A4.134546269252159,4.134546269252159,0,0,0,1.0000000000000009,-8.881784197001252e-16 A3.403064460632527,3.403064460632527,0,0,1,-0.8660254037844389,-0.5 Z" fill="#cc1616" />
<path d="M1.000000000000068,-0.0 A38.47020473765214,38.47020473765214,0,0,1,-1.000000000000071,-0.0 A38.470204737652864,38.470204737652864,0,0,1,0.999999999999924,-0.0 Z" fill="#cc1616" />
<path d="M-0.8660254037844386,0.49999999999999956 A3.403064460632529,3.403064460632529,0,0,1,1.0000000000000007,-0.0 A4.134546269252168,4.134546269252168,0,0,0,-0.8660254037844362,0.49999999999999867 Z" fill="#cc1616" />
<path d="M-0.5000000000000009,0.8660254037844388 A1.6579642261378866,1.6579642261378866,0,0,1,1.0000000000000002,2.220446049250313e-16 A1.8143517650442964,1.8143517650442964,0,0,0,-0.5000000000000002,0.8660254037844375 Z" fill="#cc1616" />
<path d="M-2.220446049250313e-16,1.0 A0.9749855388761414,0.9749855388761414,0,0,1,1.0,-1.1102230246251565e-16 A1.027044176280829,1.027044176280829,0,0,0,-2.220446049250313e-16,0.9999999999999997 Z" fill="#cc1616" />
<path d="M0.5000000000000004,0.8660254037844386 A0.5690030958595202,0.5690030958595202,0,0,1,1.0,1.1102230246251565e-16 A0.5863481511044912,0.5863481511044912,0,0,0,0.5000000000000003,0.8660254037844386 Z" fill="#cc1616" />
<path d="M0.8660254037844383,0.5000000000000006 A0.2661851290714451,0.2661851290714451,0,0,1,1.0,5.551115123125783e-17 A0.26992042518999654,0.26992042518999654,0,0,0,0.8660254037844384,0.5000000000000006 Z" fill="#cc1616" />
<path d="M1.0,9.559794928324644e-17 A0.21938350429033526,0.21938350429033526,0,0,0,0.5612329914193295,6.873121865175757e-17 A0.21938350429033526,0.21938350429033526,0,0,0,1.0,9.559794928324644e-17 L1.0,9.420989998584164e-17 A0.2307177869453117,0.2307177869453117,0,1,1,0.5385644261093767,6.595512005694794e-17 A0.2307177869453117,0.2307177869453117,0,1,1,1.0,9.420989998584164e-17 Z" fill="#1010c8" />
<path d="M1.0,7.13873781744413e-17 A0.41707782011806194,0.41707782011806194,0,0,0,0.16584435976387613,2.0310076434147298e-17 A0.41707782011806194,0.41707782011806194,0,0,0,1.0,7.13873781744413e-17 L1.0,6.944226292636904e-17 A0.43296089146097105,0.43296089146097105,0,1,1,0.1340782170780579,1.6419845938002758e-17 A0.43296089146097105,0.43296089146097105,0,1,1,1.0,6.944226292636904e-17 Z" fill="#0d0da3" />
<path d="M1.0,9.372162746361997e-17 A0.6173524173301534,0.6173524173301534,0,0,0,-0.2347048346603069,1.8117761280694623e-17 A0.6173524173301534,0.6173524173301534,0,0,0,1.0,9.372162746361997e-17 L1.0,8.999054858240239e-17 A0.6325857028938575,0.6325857028938575,0,1,1,-0.2651714057877151,1.252114295886828e-17 A0.6325857028938575,0.6325857028938575,0,1,1,1.0,8.999054858240239e-17 Z" fill="#0a0a7f" />
<path d="M1.0,4.402405771950003e-17 A0.8202581440209892,0.8202581440209892,0,0,0,-0.6405162880419784,-5.642859333548527e-17 A0.8202581440209892,0.8202581440209892,0,0,0,1.0,4.402405771950003e-17 L1.0,4.172549465637444e-17 A0.8296427399090687,0.8296427399090687,0,1,1,-0.6592854798181373,-5.987643793017367e-17 A0.8296427399090687,0.8296427399090687,0,1,1,1.0,4.172549465637444e-17 Z" fill="#07075a" />
<path d="M-0.5455,0.0455 L-0.4545,-0.0" stroke="#cc1616" stroke-width="0.0195" fill="none" />
<path d="M-0.4545,-0.0 L-0.5455,-0.0455" stroke="#cc1616" stroke-width="0.0195" fill="none" />
<circle cx="0" cy="0" r="1" stroke="#1f1f1f" stroke-width="0.0156" fill="none" />
</svg>