<?xml version="1.0" encoding="UTF-8"?>
<svg xmlns="http://www.w3.org/2000/svg" xmlns:xlink="http://www.w3.org/1999/xlink"
     width="1000" height="1000.0" viewBox="-1.05 -1.05 2.1 2.1">
<defs>
</defs>
<circle cx="0.4641016151377547" cy="-0.2679491924311228" r="0.4641016151377544" stroke="mediumblue" stroke-width="0.006" fill="none" />
<circle cx="-0.4641016151377547" cy="-0.2679491924311228" r="0.4641016151377544" stroke="mediumblue" stroke-width="0.006" fill="none" />
<circle cx="0.0" cy="0.5358983848622456" r="0.4641016151377544" stroke="mediumblue" stroke-width="0.006" fill="none" />
<path d="M-0.8660254037844389,-0.4999999999999998 A1.7320508075688779,1.7320508075688779,0,0,0,0.8660254037844384,-0.4999999999999998" stroke="#CE2029" stroke-width="0.006" fill="none" />
<path d="M-6.661338147750939e-16,1.0000000000000002 A1.7320508075688759,1.7320508075688759,0,0,0,-0.8660254037844388,-0.5000000000000001" stroke="#CE2029" stroke-width="0.006" fill="none" />
<path d="M0.8660254037844384,-0.5 A1.7320508075688779,1.7320508075688779,0,0,0,-2.220446049250313e-16,1.0" stroke="#CE2029" stroke-width="0.006" fill="none" />
<circle cx="0.0" cy="-0.7759907622602042" r="0.22400923773979575" stroke="mediumblue" stroke-width="0.006" fill="none" />
<path d="M0.8660254037844385,-0.5000000000000002 A0.5773502691896256,0.5773502691896256,0,0,1,0.0,-1.0" stroke="#CE2029" stroke-width="0.006" fill="none" />
<path d="M-0.8660254037844388,-0.4999999999999999 A0.5773502691896258,0.5773502691896258,0,0,0,-2.220446049250313e-16,-1.0" stroke="#CE2029" stroke-width="0.006" fill="none" />
<circle cx="0.330290849315507" cy="-0.8263385466404384" r="0.1100969497718356" stroke="mediumblue" stroke-width="0.006" fill="none" />
<path d="M0.8660254037844386,-0.5 A0.3464101615137754,0.3464101615137754,0,0,1,0.3711537444790453,-0.9285714285714286" stroke="#CE2029" stroke-width="0.006" fill="none" />
<path d="M-5.551115123125783e-17,-1.0 A0.1924500897298753,0.1924500897298753,0,0,0,0.37115374447904514,-0.9285714285714286" stroke="#CE2029" stroke-width="0.006" fill="none" />
<circle cx="-0.330290849315507" cy="-0.8263385466404384" r="0.1100969497718356" stroke="mediumblue" stroke-width="0.006" fill="none" />
<path d="M-0.8660254037844387,-0.5 A0.3464101615137755,0.3464101615137755,0,0,0,-0.3711537444790452,-0.9285714285714286" stroke="#CE2029" stroke-width="0.006" fill="none" />
<path d="M1.6653345369377348e-16,-1.0 A0.1924500897298753,0.1924500897298753,0,0,1,-0.37115374447904503,-0.9285714285714286" stroke="#CE2029" stroke-width="0.006" fill="none" />
<circle cx="0.0" cy="-0.49806446463354065" r="0.05391705988686775" stroke="mediumblue" stroke-width="0.006" fill="none" />
<circle cx="0.6720277132193877" cy="0.3879953811301021" r="0.22400923773979575" stroke="mediumblue" stroke-width="0.006" fill="none" />
<path d="M0.8660254037844386,-0.49999999999999983 A0.5773502691896261,0.5773502691896261,0,0,0,0.8660254037844384,0.5000000000000002" stroke="#CE2029" stroke-width="0.006" fill="none" />
<path d="M-1.1102230246251565e-16,0.9999999999999999 A0.5773502691896255,0.5773502691896255,0,0,1,0.8660254037844384,0.5000000000000006" stroke="#CE2029" stroke-width="0.006" fill="none" />
<circle cx="0.8807755981746853" cy="0.12712900717545206" r="0.1100969497718356" stroke="mediumblue" stroke-width="0.006" fill="none" />
<path d="M0.8660254037844386,-0.49999999999999994 A0.3464101615137754,0.3464101615137754,0,0,0,0.9897433186107871,0.14285714285714268" stroke="#CE2029" stroke-width="0.006" fill="none" />
<path d="M0.8660254037844385,0.5000000000000004 A0.19245008972987562,0.19245008972987562,0,0,1,0.9897433186107871,0.14285714285714263" stroke="#CE2029" stroke-width="0.006" fill="none" />
<circle cx="0.5504847488591784" cy="0.6992095394649863" r="0.1100969497718356" stroke="mediumblue" stroke-width="0.006" fill="none" />
<path d="M-1.6653345369377348e-16,1.0 A0.3464101615137754,0.3464101615137754,0,0,1,0.6185895741317415,0.7857142857142859" stroke="#CE2029" stroke-width="0.006" fill="none" />
<path d="M0.8660254037844384,0.5000000000000003 A0.19245008972987518,0.19245008972987518,0,0,0,0.6185895741317418,0.7857142857142859" stroke="#CE2029" stroke-width="0.006" fill="none" />
<circle cx="0.43133647909494227" cy="0.24903223231677032" r="0.05391705988686775" stroke="mediumblue" stroke-width="0.006" fill="none" />
<circle cx="-0.6720277132193877" cy="0.3879953811301021" r="0.22400923773979575" stroke="mediumblue" stroke-width="0.006" fill="none" />
<path d="M-0.8660254037844387,-0.49999999999999994 A0.577350269189625,0.577350269189625,0,0,1,-0.8660254037844393,0.49999999999999895" stroke="#CE2029" stroke-width="0.006" fill="none" />
<path d="M-1.1102230246251565e-16,1.0 A0.577350269189626,0.577350269189626,0,0,0,-0.8660254037844389,0.4999999999999998" stroke="#CE2029" stroke-width="0.006" fill="none" />
<circle cx="-0.8807755981746853" cy="0.12712900717545206" r="0.1100969497718356" stroke="mediumblue" stroke-width="0.006" fill="none" />
<path d="M-0.8660254037844387,-0.49999999999999994 A0.3464101615137754,0.3464101615137754,0,0,1,-0.989743318610787,0.14285714285714274" stroke="#CE2029" stroke-width="0.006" fill="none" />
<path d="M-0.8660254037844389,0.49999999999999956 A0.19245008972987518,0.19245008972987518,0,0,0,-0.9897433186107871,0.14285714285714257" stroke="#CE2029" stroke-width="0.006" fill="none" />
<circle cx="-0.5504847488591784" cy="0.6992095394649863" r="0.1100969497718356" stroke="mediumblue" stroke-width="0.006" fill="none" />
<path d="M-1.1102230246251565e-16,1.0 A0.3464101615137752,0.3464101615137752,0,0,0,-0.6185895741317415,0.785714285714286" stroke="#CE2029" stroke-width="0.006" fill="none" />
<path d="M-0.8660254037844389,0.49999999999999967 A0.19245008972987562,0.19245008972987562,0,0,1,-0.6185895741317418,0.7857142857142858" stroke="#CE2029" stroke-width="0.006" fill="none" />
<circle cx="-0.43133647909494227" cy="0.24903223231677032" r="0.05391705988686775" stroke="mediumblue" stroke-width="0.006" fill="none" />
<circle cx="0.0" cy="-0.0" r="0.0717967697244908" stroke="mediumblue" stroke-width="0.006" fill="none" />
<circle cx="0.0" cy="-0.1009338675143793" r="0.029137097789888437" stroke="mediumblue" stroke-width="0.006" fill="none" />
<circle cx="0.08741129336966535" cy="0.05046693375718965" r="0.029137097789888437" stroke="mediumblue" stroke-width="0.006" fill="none" />
<circle cx="-0.08741129336966535" cy="0.05046693375718965" r="0.029137097789888437" stroke="mediumblue" stroke-width="0.006" fill="none" />
<circle cx="0" cy="0" r="1" stroke="#303030" stroke-width="0.009000000000000001" fill="none" />
</svg>