<?xml version="1.0" encoding="UTF-8"?>
<svg xmlns="http://www.w3.org/2000/svg" xmlns:xlink="http://www.w3.org/1999/xlink"
     width="800" height="800.0" viewBox="-1.05 -1.05 2.1 2.1">
<defs>
</defs>
<circle cx="0" cy="0" r="1" stroke="none" fill="none" />
<path d="M0.9135454576426009,-0.40673664307580015 A0.2125565616700221,0.2125565616700221,0,0,0,1.0,-0.0" stroke="#ffffff" stroke-width="0.014" fill="none" />
<path d="M0.6691306063588582,-0.7431448254773942 A0.44522868530853615,0.44522868530853615,0,0,0,1.0,-0.0" stroke="#ffffff" stroke-width="0.014" fill="none" />
<path d="M0.30901699437494745,-0.9510565162951535 A0.7265425280053608,0.7265425280053608,0,0,0,0.9999999999999999,-0.0" stroke="#ffffff" stroke-width="0.014" fill="none" />
<path d="M-0.10452846326765353,-0.9945218953682734 A1.1106125148291928,1.1106125148291928,0,0,0,1.0,-0.0" stroke="#ffffff" stroke-width="0.014" fill="none" />
<path d="M-0.5,-0.8660254037844392 A1.7320508075688767,1.7320508075688767,0,0,0,0.9999999999999993,-0.0" stroke="#ffffff" stroke-width="0.014" fill="none" />
<path d="M-0.809016994374947,-0.5877852522924729 A3.077683537175253,3.077683537175253,0,0,0,0.9999999999999988,-0.0" stroke="#ffffff" stroke-width="0.014" fill="none" />
<path d="M-0.9781476007338015,-0.20791169081775962 A9.514364454222585,9.514364454222585,0,0,0,0.9999999999999942,-0.0" stroke="#ffffff" stroke-width="0.014" fill="none" />
<path d="M-0.978147600733806,0.20791169081775962 A9.514364454222607,9.514364454222607,0,0,1,0.9999999999999962,-0.0" stroke="#ffffff" stroke-width="0.014" fill="none" />
<path d="M-0.8090169943749479,0.5877852522924734 A3.077683537175255,3.077683537175255,0,0,1,0.9999999999999988,-0.0" stroke="#ffffff" stroke-width="0.014" fill="none" />
<path d="M-0.5000000000000002,0.8660254037844375 A1.7320508075688787,1.7320508075688787,0,0,1,0.9999999999999993,-0.0" stroke="#ffffff" stroke-width="0.014" fill="none" />
<path d="M-0.10452846326765419,0.9945218953682737 A1.1106125148291937,1.1106125148291937,0,0,1,0.9999999999999996,-0.0" stroke="#ffffff" stroke-width="0.014" fill="none" />
<path d="M0.3090169943749471,0.9510565162951536 A0.7265425280053611,0.7265425280053611,0,0,1,1.0,-0.0" stroke="#ffffff" stroke-width="0.014" fill="none" />
<path d="M0.6691306063588585,0.743144825477394 A0.445228685308536,0.445228685308536,0,0,1,1.0,-0.0" stroke="#ffffff" stroke-width="0.014" fill="none" />
<path d="M0.9135454576426009,0.4067366430758001 A0.21255656167002207,0.21255656167002207,0,0,1,1.0,-0.0" stroke="#ffffff" stroke-width="0.014" fill="none" />
<circle cx="0.7749999999999999" cy="9.491012693391986e-17" r="0.22500000000000003" stroke-width="0.014" fill="none" stroke="#ffffff" />
<circle cx="0.575" cy="7.04171909509728e-17" r="0.42500000000000004" stroke-width="0.014" fill="none" stroke="#ffffff" />
<circle cx="0.37500000000000006" cy="9.184850993605151e-17" r="0.625" stroke-width="0.014" fill="none" stroke="#ffffff" />
<circle cx="0.17499999999999993" cy="4.286263797015735e-17" r="0.8250000000000001" stroke-width="0.014" fill="none" stroke="#ffffff" />
<circle cx="0" cy="0" r="1" stroke="#ffffff" stroke-width="0.021" fill="none" />
</svg>