<?xml version="1.0" encoding="UTF-8"?>
<svg xmlns="http://www.w3.org/2000/svg" xmlns:xlink="http://www.w3.org/1999/xlink"
     width="279" height="279.0" viewBox="-1.0 -1.0 2.0 2.0">
<defs>
</defs>
<circle cx="0" cy="0" r="1" stroke="none" fill="none" />
<path d="M-0.9510565162951538,0.3090169943749467 A0.15906383455981515,0.15906383455981515,0,0,0,-1.0,1.3877787807814457e-16 A0.15780901065244715,0.15780901065244715,0,0,1,-0.9510565162951538,0.3090169943749467 Z" fill="white" />
<path d="M-0.8090169943749479,0.5877852522924725 A0.32768328503863076,0.32768328503863076,0,0,0,-1.0,1.1102230246251565e-16 A0.3224020963388528,0.3224020963388528,0,0,1,-0.8090169943749479,0.5877852522924725 Z" fill="white" />
<path d="M-0.587785252292473,0.8090169943749475 A0.5162615798724743,0.5162615798724743,0,0,0,-0.9999999999999999,-0.0 A0.5032732534152934,0.5032732534152934,0,0,1,-0.587785252292473,0.8090169943749475 Z" fill="white" />
<path d="M-0.3090169943749478,0.9510565162951535 A0.740215944011992,0.740215944011992,0,0,0,-1.0,-4.440892098500626e-16 A0.7138030273859354,0.7138030273859354,0,0,1,-0.3090169943749478,0.9510565162951534 Z" fill="white" />
<path d="M-8.881784197001252e-16,0.9999999999999998 A1.0259642955301471,1.0259642955301471,0,0,0,-0.9999999999999999,2.220446049250313e-16 A0.9759121704965996,0.9759121704965996,0,0,1,-6.661338147750939e-16,1.0 Z" fill="white" />
<path d="M0.309016994374947,0.9510565162951534 A1.425881097285097,1.425881097285097,0,0,0,-0.9999999999999996,-2.220446049250313e-16 A1.33100791069869,1.33100791069869,0,0,1,0.30901699437494734,0.9510565162951536 Z" fill="white" />
<path d="M0.5877852522924727,0.8090169943749472 A2.064531169356363,2.064531169356363,0,0,0,-0.9999999999999997,-0.0 A1.8713938572030666,1.8713938572030666,0,0,1,0.5877852522924726,0.8090169943749472 Z" fill="white" />
<path d="M0.8090169943749472,0.5877852522924725 A3.3352967970457748,3.3352967970457748,0,0,0,-0.9999999999999984,-0.0 A2.858670381686136,2.858670381686136,0,0,1,0.809016994374948,0.5877852522924738 Z" fill="white" />
<path d="M0.9510565162951543,0.30901699437494656 A7.49961573255559,7.49961573255559,0,0,0,-0.9999999999999994,-8.881784197001252e-16 A5.454652037213351,5.454652037213351,0,0,1,0.951056516295151,0.30901699437494656 Z" fill="white" />
<path d="M-1.0000000000000635,7.105427357601002e-15 A40.00833298613177,40.00833298613177,0,0,1,1.0000000000000595,7.105427357601002e-15 A40.00833298613177,40.00833298613177,0,0,1,-1.0000000000000635,-7.105427357601002e-15 Z" fill="white" />
<path d="M0.9510565162951536,-0.30901699437494745 A5.454652037213321,5.454652037213321,0,0,1,-0.9999999999999979,-0.0 A7.499615732555532,7.499615732555532,0,0,0,0.9510565162951592,-0.3090169943749501 Z" fill="white" />
<path d="M0.8090169943749481,-0.5877852522924738 A2.858670381686136,2.858670381686136,0,0,1,-1.0,-0.0 A3.3352967970457756,3.3352967970457756,0,0,0,0.809016994374947,-0.5877852522924729 Z" fill="white" />
<path d="M0.5877852522924735,-0.8090169943749477 A1.8713938572030646,1.8713938572030646,0,0,1,-1.0000000000000004,-2.220446049250313e-16 A2.06453116935636,2.06453116935636,0,0,0,0.5877852522924725,-0.809016994374947 Z" fill="white" />
<path d="M0.30901699437494756,-0.9510565162951538 A1.3310079106986898,1.3310079106986898,0,0,1,-0.9999999999999998,-2.220446049250313e-16 A1.425881097285097,1.425881097285097,0,0,0,0.3090169943749477,-0.9510565162951535 Z" fill="white" />
<path d="M0.0,-1.0 A0.9759121704966008,0.9759121704966008,0,0,1,-1.0000000000000002,-1.1102230246251565e-16 A1.0259642955301482,1.0259642955301482,0,0,0,0.0,-1.0000000000000002 Z" fill="white" />
<path d="M-0.30901699437494734,-0.9510565162951536 A0.7138030273859355,0.7138030273859355,0,0,1,-0.9999999999999999,-1.1102230246251565e-16 A0.7402159440119918,0.7402159440119918,0,0,0,-0.30901699437494745,-0.9510565162951535 Z" fill="white" />
<path d="M-0.587785252292473,-0.8090169943749475 A0.5032732534152934,0.5032732534152934,0,0,1,-1.0,-1.1102230246251565e-16 A0.5162615798724741,0.5162615798724741,0,0,0,-0.5877852522924729,-0.8090169943749475 Z" fill="white" />
<path d="M-0.8090169943749473,-0.5877852522924732 A0.32240209633885336,0.32240209633885336,0,0,1,-1.0,-2.220446049250313e-16 A0.32768328503863137,0.32768328503863137,0,0,0,-0.8090169943749473,-0.5877852522924734 Z" fill="white" />
<path d="M-0.9510565162951536,-0.3090169943749471 A0.1578090106524472,0.1578090106524472,0,0,1,-1.0,-5.273559366969494e-16 A0.15906383455981513,0.15906383455981513,0,0,0,-0.9510565162951536,-0.3090169943749471 Z" fill="white" />
<path d="M-0.6243535411001466,-9.946296823959816e-17 A0.1878232294499267,0.1878232294499267,0,0,0,-1.0,-1.2246467991473532e-16 A0.1878232294499267,0.1878232294499267,0,0,0,-0.6243535411001466,-9.946296823959816e-17 L-0.6088603719406578,-9.851428523860734e-17 A0.19556981402967105,0.19556981402967105,0,1,1,-1.0,-1.2246467991473532e-16 A0.19556981402967105,0.19556981402967105,0,1,1,-0.6088603719406578,-9.851428523860734e-17 Z" fill="white" />
<path d="M-0.2947886934170252,-7.928294144826718e-17 A0.3526056532914874,0.3526056532914874,0,0,0,-1.0,-1.2246467991473532e-16 A0.3526056532914874,0.3526056532914874,0,0,0,-0.2947886934170252,-7.928294144826718e-17 L-0.2717965469718893,-7.787507852078903e-17 A0.3641017265140553,0.3641017265140553,0,1,1,-1.0,-1.224646799147353e-16 A0.3641017265140553,0.3641017265140553,0,1,1,-0.2717965469718893,-7.787507852078903e-17 Z" fill="white" />
<path d="M0.037524102343532484,-2.726472318110686e-16 A0.5187620511717662,0.5187620511717662,0,0,0,-1.0,-3.361772603597305e-16 A0.5187620511717662,0.5187620511717662,0,0,0,0.037524102343532484,-2.726472318110686e-16 L0.062460313336271944,-2.655833781441025e-16 A0.531230156668136,0.531230156668136,0,1,1,-1.0,-3.3064030924152047e-16 A0.531230156668136,0.531230156668136,0,1,1,0.062460313336271944,-2.655833781441025e-16 Z" fill="white" />
<path d="M0.3726193591094107,-1.7772247122984762e-16 A0.6863096795547053,0.6863096795547053,0,0,0,-1.0,-2.617711664588992e-16 A0.6863096795547053,0.6863096795547053,0,0,0,0.3726193591094107,-1.7772247122984762e-16 L0.39394512690840566,-1.7168137288047684e-16 A0.6969725634542028,0.6969725634542028,0,1,1,-0.9999999999999999,-2.570358947732483e-16 A0.6969725634542028,0.6969725634542028,0,1,1,0.39394512690840566,-1.7168137288047684e-16 Z" fill="white" />
<path d="M0.7105321701930091,-8.199956246946265e-17 A0.8552660850965046,0.8552660850965046,0,0,0,-1.0,-1.8673944982273487e-16 A0.8552660850965046,0.8552660850965046,0,0,0,0.7105321701930091,-8.199956246946265e-17 L0.7226922349006056,-7.855489648952235e-17 A0.8613461174503028,0.8613461174503028,0,1,1,-0.9999999999999999,-1.8403937305887368e-16 A0.8613461174503028,0.8613461174503028,0,1,1,0.7226922349006056,-7.855489648952235e-17 Z" fill="white" />
<circle cx="0" cy="0" r="1" stroke="white" stroke-width="0.02" fill="none" />
</svg>