<?xml version="1.0" encoding="UTF-8"?>
<svg xmlns="http://www.w3.org/2000/svg" xmlns:xlink="http://www.w3.org/1999/xlink"
     width="800" height="800.0" viewBox="-1.05 -1.05 2.1 2.1">
<defs>
</defs>
<path d="M-0.4999999999999998,-0.8660254037844388 A0.26964279490415616,0.26964279490415616,0,0,0,-5.551115123125783e-17,-1.0 A0.2664107322467267,0.2664107322467267,0,0,1,-0.4999999999999999,-0.8660254037844388 Z" fill="#CE2029" />
<path d="M-0.8660254037844385,-0.5000000000000003 A0.5850977005479397,0.5850977005479397,0,0,0,0.0,-1.0 A0.5700901045761232,0.5700901045761232,0,0,1,-0.8660254037844382,-0.5000000000000002 Z" fill="#CE2029" />
<path d="M-0.9999999999999997,-4.440892098500626e-16 A1.023278852541188,1.023278852541188,0,0,0,-2.220446049250313e-16,-0.9999999999999999 A0.9782408591713945,0.9782408591713945,0,0,1,-1.0000000000000002,-2.220446049250313e-16 Z" fill="#CE2029" />
<path d="M-0.8660254037844394,0.49999999999999956 A1.8027504242458627,1.8027504242458627,0,0,0,2.220446049250313e-16,-1.0000000000000004 A1.66749940998884,1.66749940998884,0,0,1,-0.8660254037844395,0.49999999999999944 Z" fill="#CE2029" />
<path d="M-0.5000000000000009,0.8660254037844404 A4.075225762728158,4.075225762728158,0,0,0,0.0,-1.0000000000000018 A3.443791973795117,3.443791973795117,0,0,1,-0.5,0.8660254037844378 Z" fill="#CE2029" />
<path d="M-7.105427357601002e-15,-1.0000000000000606 A44.45194419133165,44.45194419133165,0,0,1,-7.105427357601002e-15,1.0000000000000602 A44.45194419133165,44.45194419133165,0,0,1,7.105427357601002e-15,-1.000000000000049 Z" fill="#CE2029" />
<path d="M0.5000000000000004,0.8660254037844386 A3.4437919737951157,3.4437919737951157,0,0,1,8.881784197001252e-16,-1.0000000000000002 A4.075225762728162,4.075225762728162,0,0,0,0.49999999999999956,0.8660254037844382 Z" fill="#CE2029" />
<path d="M0.8660254037844387,0.5000000000000004 A1.6674994099888416,1.6674994099888416,0,0,1,2.220446049250313e-16,-1.000000000000001 A1.802750424245865,1.802750424245865,0,0,0,0.8660254037844385,0.5000000000000004 Z" fill="#CE2029" />
<path d="M1.0,1.1102230246251565e-16 A0.9782408591713947,0.9782408591713947,0,0,1,0.0,-0.9999999999999998 A1.0232788525411878,1.0232788525411878,0,0,0,1.0000000000000004,-2.220446049250313e-16 Z" fill="#CE2029" />
<path d="M0.8660254037844382,-0.5000000000000008 A0.5700901045761226,0.5700901045761226,0,0,1,-1.1102230246251565e-16,-1.0000000000000004 A0.5850977005479395,0.5850977005479395,0,0,0,0.8660254037844382,-0.5000000000000008 Z" fill="#CE2029" />
<path d="M0.5000000000000012,-0.8660254037844379 A0.26641073224672757,0.26641073224672757,0,0,1,-5.551115123125783e-17,-1.0 A0.26964279490415716,0.26964279490415716,0,0,0,0.5000000000000012,-0.8660254037844379 Z" fill="#CE2029" />
<path d="M0.7204914280583192,-0.2795085719416809 A0.7204914280583192,0.7204914280583192,0,0,0,-0.7204914280583192,-0.279508571941681 A0.7204914280583192,0.7204914280583192,0,0,0,0.7204914280583192,-0.2795085719416809 L0.7294631544926395,-0.2705368455073605 A0.7294631544926395,0.7294631544926395,0,1,1,-0.7294631544926395,-0.2705368455073606 A0.7294631544926395,0.7294631544926395,0,1,1,0.7294631544926395,-0.2705368455073605 Z" fill="#2A52BE" />
<path d="M0.4693924533113923,-0.5306075466886078 A0.46939245331139223,0.46939245331139223,0,0,0,-0.4693924533113922,-0.5306075466886079 A0.46939245331139223,0.46939245331139223,0,0,0,0.4693924533113923,-0.5306075466886078 L0.4806138584627297,-0.5193861415372704 A0.48061385846272964,0.48061385846272964,0,1,1,-0.4806138584627296,-0.5193861415372705 A0.48061385846272964,0.48061385846272964,0,1,1,0.4806138584627297,-0.5193861415372704 Z" fill="#2A52BE" />
<path d="M0.2211008529661495,-0.7788991470338505 A0.22110085296614945,0.22110085296614945,0,0,0,-0.2211008529661494,-0.7788991470338505 A0.22110085296614945,0.22110085296614945,0,0,0,0.2211008529661495,-0.7788991470338505 L0.22894769733518539,-0.7710523026648146 A0.22894769733518533,0.22894769733518533,0,1,1,-0.22894769733518527,-0.7710523026648146 A0.22894769733518533,0.22894769733518533,0,1,1,0.22894769733518539,-0.7710523026648146 Z" fill="#2A52BE" />
<path d="M-0.05399999999999999,0.304 L0,0.196 L0.05399999999999999,0.304" fill="#CE2029" />
<circle cx="0" cy="0" r="1" stroke="#404040" stroke-width="0.010799999999999999" fill="none" />
</svg>