<?xml version="1.0" encoding="UTF-8"?>
<svg xmlns="http://www.w3.org/2000/svg" xmlns:xlink="http://www.w3.org/1999/xlink"
     width="800" height="800.0" viewBox="-1.05 -1.05 2.1 2.1">
<defs>
</defs>
<path d="M-0.8660254037844394,0.4999999999999988 A0.26984070921448555,0.26984070921448555,0,0,0,-1.0,5.551115123125783e-17 A0.26624921358054965,0.26624921358054965,0,0,1,-0.8660254037844394,0.4999999999999988 Z" fill="#b50e0e" />
<path d="M-0.5000000000000011,0.8660254037844379 A0.5859896131406296,0.5859896131406296,0,0,0,-1.0,3.3306690738754696e-16 A0.5693125260443739,0.5693125260443739,0,0,1,-0.5000000000000011,0.866025403784438 Z" fill="#b50e0e" />
<path d="M-8.881784197001252e-16,0.9999999999999998 A1.0259642955301471,1.0259642955301471,0,0,0,-0.9999999999999999,2.220446049250313e-16 A0.9759121704965996,0.9759121704965996,0,0,1,-6.661338147750939e-16,1.0 Z" fill="#b50e0e" />
<path d="M0.49999999999999956,0.8660254037844393 A1.8110197250171827,1.8110197250171827,0,0,0,-1.0000000000000002,-2.220446049250313e-16 A1.6606752626039927,1.6606752626039927,0,0,1,0.49999999999999933,0.8660254037844393 Z" fill="#b50e0e" />
<path d="M0.8660254037844395,0.5000000000000004 A4.117417428075117,4.117417428075117,0,0,0,-1.0000000000000009,-0.0 A3.4145976492230967,3.4145976492230967,0,0,1,0.8660254037844393,0.5000000000000004 Z" fill="#b50e0e" />
<path d="M-1.0000000000000635,7.105427357601002e-15 A40.00833298613177,40.00833298613177,0,0,1,1.0000000000000595,7.105427357601002e-15 A40.00833298613177,40.00833298613177,0,0,1,-1.0000000000000635,-7.105427357601002e-15 Z" fill="#b50e0e" />
<path d="M0.8660254037844375,-0.5000000000000004 A3.4145976492230967,3.4145976492230967,0,0,1,-1.0000000000000002,-4.440892098500626e-16 A4.117417428075114,4.117417428075114,0,0,0,0.8660254037844384,-0.5000000000000009 Z" fill="#b50e0e" />
<path d="M0.500000000000001,-0.866025403784438 A1.6606752626039982,1.6606752626039982,0,0,1,-0.9999999999999999,-2.220446049250313e-16 A1.8110197250171889,1.8110197250171889,0,0,0,0.5000000000000007,-0.8660254037844372 Z" fill="#b50e0e" />
<path d="M0.0,-1.0 A0.9759121704966008,0.9759121704966008,0,0,1,-1.0000000000000002,-1.1102230246251565e-16 A1.0259642955301482,1.0259642955301482,0,0,0,0.0,-1.0000000000000002 Z" fill="#b50e0e" />
<path d="M-0.5000000000000011,-0.866025403784438 A0.5693125260443739,0.5693125260443739,0,0,1,-1.0000000000000002,-2.220446049250313e-16 A0.5859896131406296,0.5859896131406296,0,0,0,-0.500000000000001,-0.866025403784438 Z" fill="#b50e0e" />
<path d="M-0.866025403784438,-0.5000000000000011 A0.2662492135805512,0.2662492135805512,0,0,1,-1.0,-1.6653345369377348e-16 A0.26984070921448716,0.26984070921448716,0,0,0,-0.8660254037844382,-0.5000000000000011 Z" fill="#b50e0e" />
<path d="M-0.4599124760527866,-8.93938570416666e-17 A0.2700437619736067,0.2700437619736067,0,0,0,-1.0,-1.2246467991473532e-16 A0.2700437619736067,0.2700437619736067,0,0,0,-0.4599124760527866,-8.93938570416666e-17 L-0.4399753836429885,-8.817306222146839e-17 A0.28001230817850575,0.28001230817850575,0,1,1,-1.0,-1.2246467991473532e-16 A0.28001230817850575,0.28001230817850575,0,1,1,-0.4399753836429885,-8.817306222146839e-17 Z" fill="#1010c8" />
<path d="M0.037524102343532484,-5.893465136607342e-17 A0.5187620511717662,0.5187620511717662,0,0,0,-1.0,-1.224646799147353e-16 A0.5187620511717662,0.5187620511717662,0,0,0,0.037524102343532484,-5.893465136607342e-17 L0.062460313336271944,-5.740774881731735e-17 A0.531230156668136,0.531230156668136,0,1,1,-1.0,-1.2246467991473532e-16 A0.531230156668136,0.531230156668136,0,1,1,0.062460313336271944,-5.740774881731735e-17 Z" fill="#0b0b91" />
<path d="M0.5412213540253059,-2.8092090015503296e-17 A0.770610677012653,0.770610677012653,0,0,0,-1.0,-1.2246467991473532e-16 A0.770610677012653,0.770610677012653,0,0,0,0.5412213540253059,-2.8092090015503296e-17 L0.5586587699834581,-2.7024356233575698e-17 A0.7793293849917291,0.7793293849917291,0,1,1,-1.0,-1.2246467991473535e-16 A0.7793293849917291,0.7793293849917291,0,1,1,0.5586587699834581,-2.7024356233575698e-17 Z" fill="#07075a" />
<circle cx="0" cy="0" r="1" stroke="#1f1f1f" stroke-width="0.012" fill="none" />
</svg>