<?xml version="1.0" encoding="UTF-8"?>
<svg xmlns="http://www.w3.org/2000/svg" xmlns:xlink="http://www.w3.org/1999/xlink"
     width="279" height="279.0" viewBox="-1.0 -1.0 2.0 2.0">
<defs>
</defs>
<circle cx="0" cy="0" r="1" stroke="none" fill="none" />
<path d="M0.9510565162951536,-0.3090169943749472 A0.1590638345598154,0.1590638345598154,0,0,0,1.0,-2.220446049250313e-16 A0.1578090106524474,0.1578090106524474,0,0,1,0.9510565162951536,-0.3090169943749471 Z" fill="white" />
<path d="M0.8090169943749473,-0.5877852522924732 A0.3276832850386316,0.3276832850386316,0,0,0,1.0,5.551115123125783e-17 A0.3224020963388535,0.3224020963388535,0,0,1,0.8090169943749475,-0.5877852522924732 Z" fill="white" />
<path d="M0.5877852522924731,-0.8090169943749475 A0.5162615798724742,0.5162615798724742,0,0,0,1.0,-0.0 A0.5032732534152933,0.5032732534152933,0,0,1,0.587785252292473,-0.8090169943749472 Z" fill="white" />
<path d="M0.30901699437494734,-0.9510565162951536 A0.7402159440119919,0.7402159440119919,0,0,0,1.0,1.1102230246251565e-16 A0.7138030273859355,0.7138030273859355,0,0,1,0.30901699437494745,-0.9510565162951533 Z" fill="white" />
<path d="M0.0,-1.0 A1.025964295530149,1.025964295530149,0,0,0,1.0000000000000004,2.220446049250313e-16 A0.9759121704966007,0.9759121704966007,0,0,1,1.1102230246251565e-16,-0.9999999999999996 Z" fill="white" />
<path d="M-0.30901699437494745,-0.951056516295154 A1.4258810972850975,1.4258810972850975,0,0,0,1.0000000000000007,-0.0 A1.3310079106986907,1.3310079106986907,0,0,1,-0.30901699437494745,-0.9510565162951541 Z" fill="white" />
<path d="M-0.5877852522924727,-0.8090169943749472 A2.0645311693563597,2.0645311693563597,0,0,0,0.9999999999999998,-0.0 A1.8713938572030648,1.8713938572030648,0,0,1,-0.587785252292473,-0.8090169943749477 Z" fill="white" />
<path d="M-0.8090169943749492,-0.5877852522924738 A3.3352967970457748,3.3352967970457748,0,0,0,1.000000000000002,-0.0 A2.858670381686135,2.858670381686135,0,0,1,-0.809016994374947,-0.5877852522924729 Z" fill="white" />
<path d="M-0.951056516295153,-0.30901699437494834 A7.499615732555537,7.499615732555537,0,0,0,1.0000000000000018,-8.881784197001252e-16 A5.454652037213326,5.454652037213326,0,0,1,-0.9510565162951542,-0.30901699437494656 Z" fill="white" />
<path d="M1.0000000000000546,-7.105427357601002e-15 A40.00833298613138,40.00833298613138,0,0,1,-1.0000000000000577,-7.105427357601002e-15 A40.00833298613217,40.00833298613217,0,0,1,0.9999999999998959,-0.0 Z" fill="white" />
<path d="M-0.9510565162951542,0.30901699437494834 A5.454652037213321,5.454652037213321,0,0,1,0.9999999999999986,8.881784197001252e-16 A7.499615732555595,7.499615732555595,0,0,0,-0.9510565162951612,0.3090169943749492 Z" fill="white" />
<path d="M-0.8090169943749476,0.5877852522924734 A2.858670381686136,2.858670381686136,0,0,1,1.0000000000000009,-0.0 A3.3352967970457748,3.3352967970457748,0,0,0,-0.8090169943749472,0.5877852522924725 Z" fill="white" />
<path d="M-0.5877852522924732,0.8090169943749472 A1.8713938572030666,1.8713938572030666,0,0,1,0.9999999999999999,2.220446049250313e-16 A2.064531169356362,2.064531169356362,0,0,0,-0.587785252292474,0.8090169943749477 Z" fill="white" />
<path d="M-0.3090169943749477,0.951056516295154 A1.3310079106986898,1.3310079106986898,0,0,1,1.0000000000000002,2.220446049250313e-16 A1.4258810972850975,1.4258810972850975,0,0,0,-0.3090169943749477,0.951056516295154 Z" fill="white" />
<path d="M-1.1102230246251565e-16,1.0 A0.9759121704966005,0.9759121704966005,0,0,1,1.0000000000000002,-0.0 A1.0259642955301487,1.0259642955301487,0,0,0,-2.220446049250313e-16,1.0 Z" fill="white" />
<path d="M0.30901699437494723,0.9510565162951539 A0.7138030273859357,0.7138030273859357,0,0,1,1.0,2.220446049250313e-16 A0.7402159440119921,0.7402159440119921,0,0,0,0.309016994374947,0.9510565162951539 Z" fill="white" />
<path d="M0.5877852522924729,0.8090169943749472 A0.503273253415293,0.503273253415293,0,0,1,1.0,2.220446049250313e-16 A0.5162615798724741,0.5162615798724741,0,0,0,0.587785252292473,0.8090169943749477 Z" fill="white" />
<path d="M0.8090169943749475,0.5877852522924731 A0.3224020963388531,0.3224020963388531,0,0,1,1.0,2.7755575615628914e-16 A0.32768328503863114,0.32768328503863114,0,0,0,0.8090169943749475,0.5877852522924731 Z" fill="white" />
<path d="M0.9510565162951532,0.3090169943749486 A0.15780901065244898,0.15780901065244898,0,0,1,1.0,-1.1379786002407855e-15 A0.15906383455981704,0.15906383455981704,0,0,0,0.9510565162951532,0.3090169943749486 Z" fill="white" />
<path d="M1.0,9.946296823959816e-17 A0.1878232294499267,0.1878232294499267,0,0,0,0.6243535411001466,7.6461256564461e-17 A0.1878232294499267,0.1878232294499267,0,0,0,1.0,9.946296823959816e-17 L1.0,9.851428523860734e-17 A0.19556981402967105,0.19556981402967105,0,1,1,0.6088603719406578,7.456389056247936e-17 A0.19556981402967105,0.19556981402967105,0,1,1,1.0,9.851428523860734e-17 Z" fill="white" />
<path d="M1.0,7.928294144826718e-17 A0.3526056532914874,0.3526056532914874,0,0,0,0.2947886934170252,3.610120298179903e-17 A0.3526056532914874,0.3526056532914874,0,0,0,1.0,7.928294144826718e-17 L1.0,7.787507852078903e-17 A0.3641017265140553,0.3641017265140553,0,1,1,0.2717965469718893,3.328547712684274e-17 A0.3641017265140553,0.3641017265140553,0,1,1,1.0,7.787507852078903e-17 Z" fill="white" />
<path d="M1.0,1.1786930273214683e-16 A0.5187620511717662,0.5187620511717662,0,0,0,-0.037524102343532484,5.433927418348494e-17 A0.5187620511717662,0.5187620511717662,0,0,0,1.0,1.1786930273214683e-16 L1.0,1.148154976346347e-16 A0.531230156668136,0.531230156668136,0,1,1,-0.062460313336271944,4.975856653721673e-17 A0.531230156668136,0.531230156668136,0,1,1,1.0,1.148154976346347e-16 Z" fill="white" />
<path d="M1.0,7.683196937136753e-17 A0.6863096795547053,0.6863096795547053,0,0,0,-0.3726193591094107,-7.216725857684035e-18 A0.6863096795547053,0.6863096795547053,0,0,0,1.0,7.683196937136753e-17 L0.9999999999999999,7.422031604392762e-17 A0.6969725634542028,0.6969725634542028,0,1,1,-0.39394512690840566,-1.113420584884387e-17 A0.6969725634542028,0.6969725634542028,0,1,1,0.9999999999999999,7.422031604392762e-17 Z" fill="white" />
<path d="M1.0,3.544958512292624e-17 A0.8552660850965046,0.8552660850965046,0,0,0,-0.7105321701930091,-6.929030223034598e-17 A0.8552660850965046,0.8552660850965046,0,0,0,1.0,3.544958512292624e-17 L0.9999999999999999,3.396040669076793e-17 A0.8613461174503028,0.8613461174503028,0,1,1,-0.7226922349006056,-7.152406987858342e-17 A0.8613461174503028,0.8613461174503028,0,1,1,0.9999999999999999,3.396040669076793e-17 Z" fill="white" />
<circle cx="0" cy="0" r="1" stroke="white" stroke-width="0.02" fill="none" />
</svg>