<?xml version="1.0" encoding="UTF-8"?>
<svg xmlns="http://www.w3.org/2000/svg" xmlns:xlink="http://www.w3.org/1999/xlink"
     width="800" height="800.0" viewBox="-1.05 -1.05 2.1 2.1">
<defs>
</defs>
<circle cx="0" cy="0" r="1" stroke="none" fill="none" />
<path d="M0.8660254037844387,-0.4999999999999998 A0.27044627062325544,0.27044627062325544,0,0,0,1.0,-1.1102230246251565e-16 A0.2657758393904524,0.2657758393904524,0,0,1,0.8660254037844387,-0.49999999999999983 Z" fill="#cc1616" />
<path d="M0.5000000000000002,-0.8660254037844384 A0.5887035182420128,0.5887035182420128,0,0,0,1.0,-0.0 A0.5670139521837565,0.5670139521837565,0,0,1,0.5000000000000001,-0.8660254037844383 Z" fill="#cc1616" />
<path d="M0.0,-0.9999999999999998 A1.0341437607264472,1.0341437607264472,0,0,0,1.0000000000000002,2.220446049250313e-16 A0.9690291787270723,0.9690291787270723,0,0,1,1.1102230246251565e-16,-0.9999999999999998 Z" fill="#cc1616" />
<path d="M-0.5,-0.866025403784439 A1.8363552980705975,1.8363552980705975,0,0,0,1.0,-0.0 A1.640597430386411,1.640597430386411,0,0,1,-0.49999999999999967,-0.8660254037844385 Z" fill="#cc1616" />
<path d="M-0.866025403784439,-0.5000000000000009 A4.249547325288451,4.249547325288451,0,0,0,1.0000000000000004,-0.0 A3.330044291425384,3.330044291425384,0,0,1,-0.8660254037844386,-0.49999999999999956 Z" fill="#cc1616" />
<path d="M0.9999999999999616,-0.0 A30.78006333979338,30.78006333979338,0,0,1,-0.9999999999999707,-0.0 A30.780063339793838,30.780063339793838,0,0,1,0.9999999999999826,-0.0 Z" fill="#cc1616" />
<path d="M-0.8660254037844384,0.5 A3.330044291425386,3.330044291425386,0,0,1,1.000000000000001,-0.0 A4.249547325288459,4.249547325288459,0,0,0,-0.8660254037844395,0.5 Z" fill="#cc1616" />
<path d="M-0.500000000000001,0.8660254037844383 A1.6405974303864141,1.6405974303864141,0,0,1,1.0000000000000009,-2.220446049250313e-16 A1.8363552980705997,1.8363552980705997,0,0,0,-0.5000000000000002,0.8660254037844375 Z" fill="#cc1616" />
<path d="M-2.220446049250313e-16,0.9999999999999997 A0.9690291787270723,0.9690291787270723,0,0,1,1.0000000000000002,-1.1102230246251565e-16 A1.0341437607264472,1.0341437607264472,0,0,0,-2.220446049250313e-16,1.0 Z" fill="#cc1616" />
<path d="M0.5000000000000001,0.8660254037844383 A0.5670139521837565,0.5670139521837565,0,0,1,1.0,-0.0 A0.5887035182420128,0.5887035182420128,0,0,0,0.5000000000000002,0.8660254037844384 Z" fill="#cc1616" />
<path d="M0.8660254037844384,0.5000000000000006 A0.2657758393904529,0.2657758393904529,0,0,1,1.0,5.551115123125783e-17 A0.27044627062325594,0.27044627062325594,0,0,0,0.8660254037844384,0.5000000000000006 Z" fill="#cc1616" />
<path d="M1.0,9.559794928324644e-17 A0.21938350429033526,0.21938350429033526,0,0,0,0.5612329914193295,6.873121865175757e-17 A0.21938350429033526,0.21938350429033526,0,0,0,1.0,9.559794928324644e-17 L1.0,9.420989998584164e-17 A0.2307177869453117,0.2307177869453117,0,1,1,0.5385644261093767,6.595512005694794e-17 A0.2307177869453117,0.2307177869453117,0,1,1,1.0,9.420989998584164e-17 Z" fill="#1010c8" />
<path d="M1.0,7.13873781744413e-17 A0.41707782011806194,0.41707782011806194,0,0,0,0.16584435976387613,2.0310076434147298e-17 A0.41707782011806194,0.41707782011806194,0,0,0,1.0,7.13873781744413e-17 L1.0,6.944226292636904e-17 A0.43296089146097105,0.43296089146097105,0,1,1,0.1340782170780579,1.6419845938002758e-17 A0.43296089146097105,0.43296089146097105,0,1,1,1.0,6.944226292636904e-17 Z" fill="#0d0da3" />
<path d="M1.0,9.372162746361997e-17 A0.6173524173301534,0.6173524173301534,0,0,0,-0.2347048346603069,1.8117761280694623e-17 A0.6173524173301534,0.6173524173301534,0,0,0,1.0,9.372162746361997e-17 L1.0,8.999054858240239e-17 A0.6325857028938575,0.6325857028938575,0,1,1,-0.2651714057877151,1.252114295886828e-17 A0.6325857028938575,0.6325857028938575,0,1,1,1.0,8.999054858240239e-17 Z" fill="#0a0a7f" />
<path d="M1.0,4.402405771950003e-17 A0.8202581440209892,0.8202581440209892,0,0,0,-0.6405162880419784,-5.642859333548527e-17 A0.8202581440209892,0.8202581440209892,0,0,0,1.0,4.402405771950003e-17 L1.0,4.172549465637444e-17 A0.8296427399090687,0.8296427399090687,0,1,1,-0.6592854798181373,-5.987643793017367e-17 A0.8296427399090687,0.8296427399090687,0,1,1,1.0,4.172549465637444e-17 Z" fill="#07075a" />
<path d="M-0.552,0.052 L-0.448,-0.0" stroke="#cc1616" stroke-width="0.0195" fill="none" />
<path d="M-0.448,-0.0 L-0.552,-0.052" stroke="#cc1616" stroke-width="0.0195" fill="none" />
<circle cx="0" cy="0" r="1" stroke="#1f1f1f" stroke-width="0.0156" fill="none" />
</svg>