<?xml version="1.0" encoding="UTF-8"?>
<svg xmlns="http://www.w3.org/2000/svg" xmlns:xlink="http://www.w3.org/1999/xlink"
     width="800" height="800.0" viewBox="-1.05 -1.05 2.1 2.1" fill="red">
<defs>
</defs>
<circle cx="0" cy="0" r="1" stroke="none" fill="#c81f32" />
<path d="M-0.9510565162951538,0.3090169943749467 A0.15899116975185693,0.15899116975185693,0,0,0,-1.0,1.6653345369377348e-16 A0.15786192098967045,0.15786192098967045,0,0,1,-0.9510565162951539,0.3090169943749467 Z" fill="#ffffff" />
<path d="M-0.8090169943749479,0.5877852522924725 A0.32739563599494403,0.32739563599494403,0,0,0,-0.9999999999999999,1.1102230246251565e-16 A0.3226430019872937,0.3226430019872937,0,0,1,-0.8090169943749479,0.5877852522924725 Z" fill="#ffffff" />
<path d="M-0.587785252292473,0.8090169943749475 A0.5155655369291335,0.5155655369291335,0,0,0,-1.0,1.1102230246251565e-16 A0.50387732889486,0.50387732889486,0,0,1,-0.587785252292473,0.8090169943749475 Z" fill="#ffffff" />
<path d="M-0.3090169943749478,0.9510565162951534 A0.7388048567345769,0.7388048567345769,0,0,0,-1.0,-3.3306690738754696e-16 A0.7150366042727325,0.7150366042727325,0,0,1,-0.3090169943749478,0.9510565162951534 Z" fill="#ffffff" />
<path d="M-8.881784197001252e-16,1.0000000000000002 A1.0232788525411864,1.0232788525411864,0,0,0,-1.0000000000000002,4.440892098500626e-16 A0.9782408591713934,0.9782408591713934,0,0,1,-8.881784197001252e-16,1.0 Z" fill="#ffffff" />
<path d="M0.30901699437494723,0.9510565162951538 A1.4207321193396438,1.4207321193396438,0,0,0,-1.0000000000000002,-0.0 A1.3353722426916985,1.3353722426916985,0,0,1,0.3090169943749471,0.9510565162951534 Z" fill="#ffffff" />
<path d="M0.5877852522924729,0.8090169943749477 A2.053808555267725,2.053808555267725,0,0,0,-1.0000000000000004,-0.0 A1.8800784197968055,1.8800784197968055,0,0,1,0.5877852522924731,0.8090169943749479 Z" fill="#ffffff" />
<path d="M0.8090169943749466,0.5877852522924729 A3.307520731681709,3.307520731681709,0,0,0,-0.9999999999999984,4.440892098500626e-16 A2.8790758861419143,2.8790758861419143,0,0,1,0.8090169943749476,0.5877852522924734 Z" fill="#ffffff" />
<path d="M0.9510565162951572,0.30901699437494745 A7.361160029403744,7.361160029403744,0,0,0,-1.0000000000000038,-1.7763568394002505e-15 A5.52973288231036,5.52973288231036,0,0,1,0.9510565162951549,0.30901699437494745 Z" fill="#ffffff" />
<path d="M-0.9999999999998506,-0.0 A44.45194419133164,44.45194419133164,0,0,1,0.9999999999998561,-0.0 A44.45194419133165,44.45194419133165,0,0,1,-1.0000000000000482,-7.105427357601002e-15 Z" fill="#ffffff" />
<path d="M0.9510565162951548,-0.30901699437494656 A5.529732882310331,5.529732882310331,0,0,1,-1.0,8.881784197001252e-16 A7.361160029403688,7.361160029403688,0,0,0,0.9510565162951512,-0.30901699437494745 Z" fill="#ffffff" />
<path d="M0.8090169943749477,-0.5877852522924734 A2.8790758861419143,2.8790758861419143,0,0,1,-0.9999999999999997,-0.0 A3.307520731681709,3.307520731681709,0,0,0,0.8090169943749468,-0.5877852522924729 Z" fill="#ffffff" />
<path d="M0.5877852522924727,-0.809016994374947 A1.880078419796802,1.880078419796802,0,0,1,-0.9999999999999999,-4.440892098500626e-16 A2.0538085552677225,2.0538085552677225,0,0,0,0.5877852522924738,-0.8090169943749479 Z" fill="#ffffff" />
<path d="M0.30901699437494756,-0.9510565162951534 A1.3353722426916983,1.3353722426916983,0,0,1,-0.9999999999999999,-4.440892098500626e-16 A1.4207321193396438,1.4207321193396438,0,0,0,0.3090169943749477,-0.9510565162951539 Z" fill="#ffffff" />
<path d="M0.0,-1.0 A0.9782408591713945,0.9782408591713945,0,0,1,-1.0000000000000002,-1.1102230246251565e-16 A1.0232788525411876,1.0232788525411876,0,0,0,-2.220446049250313e-16,-1.0000000000000002 Z" fill="#ffffff" />
<path d="M-0.30901699437494734,-0.9510565162951536 A0.7150366042727325,0.7150366042727325,0,0,1,-0.9999999999999999,-2.220446049250313e-16 A0.738804856734577,0.738804856734577,0,0,0,-0.30901699437494734,-0.9510565162951536 Z" fill="#ffffff" />
<path d="M-0.587785252292473,-0.8090169943749475 A0.50387732889486,0.50387732889486,0,0,1,-1.0,-1.1102230246251565e-16 A0.5155655369291335,0.5155655369291335,0,0,0,-0.587785252292473,-0.8090169943749475 Z" fill="#ffffff" />
<path d="M-0.8090169943749472,-0.5877852522924731 A0.3226430019872943,0.3226430019872943,0,0,1,-1.0,-2.220446049250313e-16 A0.32739563599494464,0.32739563599494464,0,0,0,-0.8090169943749473,-0.5877852522924732 Z" fill="#ffffff" />
<path d="M-0.9510565162951536,-0.3090169943749471 A0.15786192098967047,0.15786192098967047,0,0,1,-1.0,-4.440892098500626e-16 A0.15899116975185693,0.15899116975185693,0,0,0,-0.9510565162951536,-0.3090169943749471 Z" fill="#ffffff" />
<path d="M-0.6235902174482848,-9.941622814624985e-17 A0.18820489127585754,0.18820489127585754,0,0,0,-1.0,-1.224646799147353e-16 A0.18820489127585754,0.18820489127585754,0,0,0,-0.6235902174482848,-9.941622814624985e-17 L-0.6096463846256568,-9.8562414634546e-17 A0.19517680768717155,0.19517680768717155,0,1,1,-1.0,-1.2246467991473532e-16 A0.19517680768717155,0.19517680768717155,0,1,1,-0.6096463846256568,-9.8562414634546e-17 Z" fill="#ffffff" />
<path d="M-0.293646898743718,-7.921302668866972e-17 A0.35317655062814096,0.35317655062814096,0,0,0,-1.0,-1.2246467991473532e-16 A0.35317655062814096,0.35317655062814096,0,0,0,-0.293646898743718,-7.921302668866972e-17 L-0.27295381148984044,-7.794594053517282e-17 A0.3635230942550798,0.3635230942550798,0,1,1,-1.0,-1.2246467991473532e-16 A0.3635230942550798,0.3635230942550798,0,1,1,-0.27295381148984044,-7.794594053517282e-17 Z" fill="#ffffff" />
<path d="M0.03877228307454067,-2.7229365098692758e-16 A0.5193861415372704,0.5193861415372704,0,0,0,-1.0,-3.3590010856243883e-16 A0.5193861415372704,0.5193861415372704,0,0,0,0.03877228307454067,-2.7229365098692758e-16 L0.06121509337721548,-2.659361202498106e-16 A0.5306075466886078,0.5306075466886078,0,1,1,-1.0,-3.3091680361537393e-16 A0.5306075466886078,0.5306075466886078,0,1,1,0.06121509337721548,-2.659361202498106e-16 Z" fill="#ffffff" />
<path d="M0.37369530091961084,-1.774176817209829e-16 A0.6868476504598054,0.6868476504598054,0,0,0,-1.0,-2.61532259384731e-16 A0.6868476504598054,0.6868476504598054,0,0,0,0.37369530091961084,-1.774176817209829e-16 L0.3928885981445021,-1.7198066312089584e-16 A0.696444299072251,0.696444299072251,0,1,1,-1.0,-2.5727049128522126e-16 A0.696444299072251,0.696444299072251,0,1,1,0.3928885981445021,-1.7198066312089584e-16 Z" fill="#ffffff" />
<path d="M0.7111505506907905,-8.182438953127624e-17 A0.8555752753453952,0.8555752753453952,0,0,0,-1.0,-1.866021417694116e-16 A0.8555752753453952,0.8555752753453952,0,0,0,0.7111505506907905,-8.182438953127624e-17 L0.7220945503674179,-7.872420673808727e-17 A0.8610472751837089,0.8610472751837089,0,1,1,-1.0,-1.841720856849152e-16 A0.8610472751837089,0.8610472751837089,0,1,1,0.7220945503674179,-7.872420673808727e-17 Z" fill="#ffffff" />
<circle cx="0" cy="0" r="1" stroke="#4f0c12" stroke-width="0.018" fill="none" />
</svg>