<?xml version="1.0" encoding="UTF-8"?>
<svg xmlns="http://www.w3.org/2000/svg" xmlns:xlink="http://www.w3.org/1999/xlink"
     width="800" height="800.0" viewBox="-1.05 -1.05 2.1 2.1">
<defs>
</defs>
<path d="M0.8660254037844386,-0.4999999999999999 A0.26794919243112264,0.26794919243112264,0,0,0,1.0,-0.0" stroke="#cc1616" stroke-width="0.015" fill="none" />
<path d="M0.5000000000000002,-0.8660254037844386 A0.5773502691896256,0.5773502691896256,0,0,0,1.0,-0.0" stroke="#cc1616" stroke-width="0.015" fill="none" />
<path d="M2.220446049250313e-16,-0.9999999999999999 A0.9999999999999998,0.9999999999999998,0,0,0,1.0,-0.0" stroke="#cc1616" stroke-width="0.015" fill="none" />
<path d="M-0.5,-0.8660254037844392 A1.7320508075688767,1.7320508075688767,0,0,0,0.9999999999999993,-0.0" stroke="#cc1616" stroke-width="0.015" fill="none" />
<path d="M-0.8660254037844382,-0.5 A3.732050807568878,3.732050807568878,0,0,0,1.0000000000000002,-0.0" stroke="#cc1616" stroke-width="0.015" fill="none" />
<path d="M1.0,6.123233995736766e-17 L-1.0,-1.8369701987210297e-16" stroke="#cc1616" stroke-width="0.015" fill="none" />
<path d="M-0.8660254037844382,0.49999999999999956 A3.7320508075688807,3.7320508075688807,0,0,1,0.9999999999999986,-0.0" stroke="#cc1616" stroke-width="0.015" fill="none" />
<path d="M-0.5000000000000002,0.8660254037844375 A1.7320508075688787,1.7320508075688787,0,0,1,0.9999999999999993,-0.0" stroke="#cc1616" stroke-width="0.015" fill="none" />
<path d="M-2.220446049250313e-16,1.0 A1.0000000000000002,1.0000000000000002,0,0,1,0.9999999999999997,-0.0" stroke="#cc1616" stroke-width="0.015" fill="none" />
<path d="M0.5000000000000002,0.8660254037844386 A0.5773502691896256,0.5773502691896256,0,0,1,1.0,-0.0" stroke="#cc1616" stroke-width="0.015" fill="none" />
<path d="M0.8660254037844384,0.5000000000000004 A0.26794919243112303,0.26794919243112303,0,0,1,1.0,-0.0" stroke="#cc1616" stroke-width="0.015" fill="none" />
<circle cx="0.7250000000000001" cy="8.878689293818312e-17" r="0.275" stroke-width="0.015" fill="none" stroke="#1010c8" />
<circle cx="0.47500000000000003" cy="1.1634144591899857e-16" r="0.525" stroke-width="0.015" fill="none" stroke="#0b0b91" />
<circle cx="0.22499999999999998" cy="5.510910596163089e-17" r="0.775" stroke-width="0.015" fill="none" stroke="#07075a" />
<circle cx="0" cy="0" r="1" stroke="#1f1f1f" stroke-width="0.018" fill="none" />
</svg>