<?xml version="1.0" encoding="UTF-8"?>
<svg xmlns="http://www.w3.org/2000/svg" xmlns:xlink="http://www.w3.org/1999/xlink"
     width="800" height="800.0" viewBox="-1.05 -1.05 2.1 2.1">
<defs>
</defs>
<circle cx="0" cy="0" r="1" stroke="none" fill="none" />
<path d="M0.766044443118978,-0.6427876096865393 A0.36706866831712937,0.36706866831712937,0,0,0,1.0,2.220446049250313e-16 A0.36110491121742533,0.36110491121742533,0,0,1,0.7660444431189782,-0.6427876096865395 Z" fill="#ba240d" />
<path d="M0.1736481776669302,-0.9848077530122077 A0.8554643458878245,0.8554643458878245,0,0,0,1.0,1.1102230246251565e-16 A0.8237583795395698,0.8237583795395698,0,0,1,0.1736481776669302,-0.9848077530122081 Z" fill="#ba240d" />
<path d="M-0.5000000000000004,-0.8660254037844399 A1.8027504242458652,1.8027504242458652,0,0,0,0.9999999999999999,-0.0 A1.667499409988841,1.667499409988841,0,0,1,-0.49999999999999967,-0.8660254037844385 Z" fill="#ba240d" />
<path d="M-0.9396926207859047,-0.34202014332566755 A6.502536005340158,6.502536005340158,0,0,0,0.9999999999999948,-0.0 A5.030723603802174,5.030723603802174,0,0,1,-0.9396926207859055,-0.34202014332566755 Z" fill="#ba240d" />
<path d="M-0.9396926207859055,0.34202014332566844 A5.030723603802173,5.030723603802173,0,0,1,0.9999999999999976,8.881784197001252e-16 A6.502536005340168,6.502536005340168,0,0,0,-0.9396926207859135,0.3420201433256702 Z" fill="#ba240d" />
<path d="M-0.5000000000000011,0.8660254037844384 A1.6674994099888436,1.6674994099888436,0,0,1,0.9999999999999992,-2.220446049250313e-16 A1.8027504242458674,1.8027504242458674,0,0,0,-0.5000000000000004,0.8660254037844376 Z" fill="#ba240d" />
<path d="M0.17364817766692975,0.9848077530122077 A0.8237583795395704,0.8237583795395704,0,0,1,0.9999999999999999,-4.440892098500626e-16 A0.8554643458878252,0.8554643458878252,0,0,0,0.17364817766692986,0.9848077530122084 Z" fill="#ba240d" />
<path d="M0.7660444431189778,0.6427876096865397 A0.3611049112174254,0.3611049112174254,0,0,1,1.0,-5.551115123125783e-17 A0.3670686683171294,0.3670686683171294,0,0,0,0.7660444431189778,0.6427876096865396 Z" fill="#ba240d" />
<path d="M1.0,9.969557572650483e-17 A0.1859238451779176,0.1859238451779176,0,0,0,0.6281523096441648,7.692647153827435e-17 A0.1859238451779176,0.1859238451779176,0,0,0,1.0,9.969557572650483e-17 L1.0,9.82725381920757e-17 A0.19754382846958912,0.19754382846958912,0,1,1,0.6049123430608216,7.408039646941609e-17 A0.19754382846958912,0.19754382846958912,0,1,1,1.0,9.82725381920757e-17 Z" fill="#1010c8" />
<path d="M1.0,7.963173943804351e-17 A0.349757501563012,0.349757501563012,0,0,0,0.300484996873976,3.6798798961351714e-17 A0.349757501563012,0.349757501563012,0,0,0,1.0,7.963173943804351e-17 L1.0,7.752004941374531e-17 A0.36700075917629643,0.36700075917629643,0,1,1,0.2659984816474071,3.257541891275531e-17 A0.36700075917629643,0.36700075917629643,0,1,1,1.0,7.752004941374531e-17 Z" fill="#0d0dac" />
<path d="M1.0,1.1863379858737304e-16 A0.5156407599727101,0.5156407599727101,0,0,0,-0.03128151994542011,5.548601796632423e-17 A0.5156407599727101,0.5156407599727101,0,0,0,1.0,1.1863379858737304e-16 L1.0,1.140533868834482e-16 A0.5343417099409535,0.5343417099409535,0,1,1,-0.06868341988190713,4.8615400410436974e-17 A0.5343417099409535,0.5343417099409535,0,1,1,1.0,1.140533868834482e-16 Z" fill="#0b0b91" />
<path d="M1.0,7.749263091802444e-17 A0.6836123240922288,0.6836123240922288,0,0,0,-0.3672246481844576,-6.225733537698668e-18 A0.6836123240922288,0.6836123240922288,0,0,0,1.0,7.749263091802444e-17 L1.0,7.357529354016799e-17 A0.699606067678477,0.699606067678477,0,1,1,-0.3992121353569539,-1.2101739604483344e-17 A0.699606067678477,0.699606067678477,0,1,1,1.0,7.357529354016799e-17 Z" fill="#090975" />
<path d="M0.9999999999999999,3.5830256008055114e-17 A0.8537118782615463,0.8537118782615463,0,0,0,-0.7074237565230926,-6.871929590265264e-17 A0.8537118782615463,0.8537118782615463,0,0,0,0.9999999999999999,3.5830256008055114e-17 L1.0,3.359640973575344e-17 A0.8628322477993469,0.8628322477993469,0,1,1,-0.7256644955986937,-7.207006531110516e-17 A0.8628322477993469,0.8628322477993469,0,1,1,1.0,3.359640973575344e-17 Z" fill="#07075a" />
<circle cx="0" cy="0" r="1" stroke="#1f1f1f" stroke-width="0.018" fill="none" />
</svg>