<?xml version="1.0" encoding="UTF-8"?>
<svg xmlns="http://www.w3.org/2000/svg" xmlns:xlink="http://www.w3.org/1999/xlink"
     width="800" height="800.0" viewBox="-1.05 -1.05 2.1 2.1">
<defs>
</defs>
<path d="M-0.4999999999999998,-0.8660254037844387 A0.2679491924311226,0.2679491924311226,0,0,0,5.551115123125783e-17,-1.0" stroke-width="0.009" fill="none" stroke="#CE2029" />
<path d="M-0.8660254037844388,-0.4999999999999999 A0.5773502691896258,0.5773502691896258,0,0,0,-2.220446049250313e-16,-1.0" stroke-width="0.009" fill="none" stroke="#CE2029" />
<path d="M-1.0000000000000002,-2.220446049250313e-16 A0.9999999999999998,0.9999999999999998,0,0,0,0.0,-1.0" stroke-width="0.009" fill="none" stroke="#CE2029" />
<path d="M-0.8660254037844395,0.49999999999999956 A1.7320508075688759,1.7320508075688759,0,0,0,0.0,-1.0000000000000002" stroke-width="0.009" fill="none" stroke="#CE2029" />
<path d="M-0.5000000000000004,0.8660254037844377 A3.732050807568871,3.732050807568871,0,0,0,4.440892098500626e-16,-0.9999999999999994" stroke-width="0.009" fill="none" stroke="#CE2029" />
<path d="M2.220446049250313e-16,-1.0 L1.2246467991473532e-16,1.0" stroke-width="0.009" fill="none" stroke="#CE2029" />
<path d="M0.4999999999999991,0.8660254037844366 A3.732050807568874,3.732050807568874,0,0,1,4.440892098500626e-16,-0.9999999999999984" stroke-width="0.009" fill="none" stroke="#CE2029" />
<path d="M0.8660254037844382,0.5000000000000002 A1.7320508075688779,1.7320508075688779,0,0,1,2.220446049250313e-16,-1.0000000000000004" stroke-width="0.009" fill="none" stroke="#CE2029" />
<path d="M1.0,-0.0 A0.9999999999999998,0.9999999999999998,0,0,1,2.220446049250313e-16,-0.9999999999999999" stroke-width="0.009" fill="none" stroke="#CE2029" />
<path d="M0.8660254037844384,-0.5000000000000002 A0.5773502691896255,0.5773502691896255,0,0,1,1.1102230246251565e-16,-1.0" stroke-width="0.009" fill="none" stroke="#CE2029" />
<path d="M0.49999999999999956,-0.8660254037844389 A0.26794919243112236,0.26794919243112236,0,0,1,5.551115123125783e-17,-1.0" stroke-width="0.009" fill="none" stroke="#CE2029" />
<circle cx="1.5614246689128753e-17" cy="-0.255" r="0.745" stroke-width="0.009" fill="none" stroke="#2A52BE" />
<circle cx="3.092233167847067e-17" cy="-0.505" r="0.495" stroke-width="0.009" fill="none" stroke="#2A52BE" />
<circle cx="4.6230416667812586e-17" cy="-0.755" r="0.245" stroke-width="0.009" fill="none" stroke="#2A52BE" />
<path d="M-0.045,0.295 L0,0.20500000000000002 L0.045,0.295" fill="#CE2029" />
<circle cx="0" cy="0" r="1" stroke="#404040" stroke-width="0.010799999999999999" fill="none" />
</svg>