<?xml version="1.0" encoding="UTF-8"?>
<svg xmlns="http://www.w3.org/2000/svg" xmlns:xlink="http://www.w3.org/1999/xlink"
     width="800" height="800.0" viewBox="-1.05 -1.05 2.1 2.1">
<defs>
</defs>
<circle cx="0" cy="0" r="1" stroke="none" fill="none" />
<path d="M0.9510565162951536,-0.30901699437494723 A0.15891955953958248,0.15891955953958248,0,0,0,1.0,-1.942890293094024e-16 A0.15791585662788396,0.15791585662788396,0,0,1,0.9510565162951536,-0.3090169943749472 Z" fill="#ffffff" />
<path d="M0.8090169943749473,-0.5877852522924732 A0.32711051705070804,0.32711051705070804,0,0,0,1.0,5.551115123125783e-17 A0.32288630008188346,0.32288630008188346,0,0,1,0.8090169943749473,-0.5877852522924732 Z" fill="#ffffff" />
<path d="M0.5877852522924731,-0.8090169943749476 A0.5148745414201213,0.5148745414201213,0,0,0,1.0,2.220446049250313e-16 A0.5044860456594827,0.5044860456594827,0,0,1,0.5877852522924731,-0.8090169943749473 Z" fill="#ffffff" />
<path d="M0.30901699437494756,-0.9510565162951538 A0.7374036580669345,0.7374036580669345,0,0,0,0.9999999999999999,-0.0 A0.7162790042938184,0.7162790042938184,0,0,1,0.30901699437494723,-0.9510565162951532 Z" fill="#ffffff" />
<path d="M0.0,-1.0 A1.02061364031853,1.02061364031853,0,0,0,1.0000000000000002,2.220446049250313e-16 A0.9805869599914966,0.9805869599914966,0,0,1,0.0,-1.0 Z" fill="#ffffff" />
<path d="M-0.3090169943749479,-0.9510565162951541 A1.4156287195239816,1.4156287195239816,0,0,0,1.0000000000000002,2.220446049250313e-16 A1.339773934832818,1.339773934832818,0,0,1,-0.30901699437494734,-0.9510565162951533 Z" fill="#ffffff" />
<path d="M-0.5877852522924734,-0.8090169943749477 A2.043208850597445,2.043208850597445,0,0,0,1.0000000000000004,4.440892098500626e-16 A1.8888563129425648,1.8888563129425648,0,0,1,-0.5877852522924729,-0.8090169943749472 Z" fill="#ffffff" />
<path d="M-0.809016994374949,-0.5877852522924738 A3.280222277343303,3.280222277343303,0,0,0,1.0000000000000024,4.440892098500626e-16 A2.8997942162217316,2.8997942162217316,0,0,1,-0.8090169943749463,-0.5877852522924725 Z" fill="#ffffff" />
<path d="M-0.9510565162951534,-0.30901699437494656 A7.227760877800466,7.227760877800466,0,0,0,1.0,8.881784197001252e-16 A5.606949399650785,5.606949399650785,0,0,1,-0.9510565162951548,-0.30901699437494656 Z" fill="#ffffff" />
<path d="M0.9999999999999419,7.105427357601002e-15 A50.00666648889504,50.00666648889504,0,0,1,-0.9999999999999457,7.105427357601002e-15 A50.00666648889627,50.00666648889627,0,0,1,0.9999999999999654,-7.105427357601002e-15 Z" fill="#ffffff" />
<path d="M-0.9510565162951552,0.30901699437494656 A5.606949399650786,5.606949399650786,0,0,1,1.0000000000000027,-8.881784197001252e-16 A7.227760877800513,7.227760877800513,0,0,0,-0.9510565162951508,0.3090169943749457 Z" fill="#ffffff" />
<path d="M-0.8090169943749471,0.5877852522924729 A2.899794216221733,2.899794216221733,0,0,1,0.9999999999999996,-0.0 A3.280222277343303,3.280222277343303,0,0,0,-0.8090169943749492,0.5877852522924738 Z" fill="#ffffff" />
<path d="M-0.5877852522924738,0.8090169943749479 A1.8888563129425677,1.8888563129425677,0,0,1,1.0000000000000002,-0.0 A2.043208850597446,2.043208850597446,0,0,0,-0.5877852522924731,0.809016994374947 Z" fill="#ffffff" />
<path d="M-0.3090169943749478,0.9510565162951529 A1.339773934832818,1.339773934832818,0,0,1,1.0,-2.220446049250313e-16 A1.4156287195239805,1.4156287195239805,0,0,0,-0.3090169943749477,0.9510565162951534 Z" fill="#ffffff" />
<path d="M-3.3306690738754696e-16,0.9999999999999999 A0.9805869599914966,0.9805869599914966,0,0,1,1.0000000000000002,-2.220446049250313e-16 A1.0206136403185302,1.0206136403185302,0,0,0,-2.220446049250313e-16,1.0000000000000002 Z" fill="#ffffff" />
<path d="M0.309016994374947,0.9510565162951535 A0.7162790042938184,0.7162790042938184,0,0,1,1.0,2.220446049250313e-16 A0.7374036580669345,0.7374036580669345,0,0,0,0.3090169943749471,0.9510565162951539 Z" fill="#ffffff" />
<path d="M0.5877852522924729,0.8090169943749475 A0.5044860456594824,0.5044860456594824,0,0,1,1.0,2.220446049250313e-16 A0.514874541420121,0.514874541420121,0,0,0,0.5877852522924729,0.8090169943749475 Z" fill="#ffffff" />
<path d="M0.8090169943749475,0.587785252292473 A0.3228863000818828,0.3228863000818828,0,0,1,1.0,3.3306690738754696e-16 A0.32711051705070754,0.32711051705070754,0,0,0,0.8090169943749475,0.5877852522924731 Z" fill="#ffffff" />
<path d="M0.9510565162951532,0.3090169943749486 A0.15791585662788563,0.15791585662788563,0,0,1,1.0,-1.1102230246251565e-15 A0.1589195595395841,0.1589195595395841,0,0,0,0.9510565162951531,0.3090169943749486 Z" fill="#ffffff" />
<path d="M1.0,9.936941512943417e-17 A0.18858714856708864,0.18858714856708864,0,0,0,0.6228257028658226,7.627415034413302e-17 A0.18858714856708864,0.18858714856708864,0,0,0,1.0,9.936941512943417e-17 L1.0,9.861047073160028e-17 A0.19478439987548468,0.19478439987548468,0,1,1,0.6104312002490306,7.475626154846524e-17 A0.19478439987548468,0.19478439987548468,0,1,1,1.0,9.861047073160028e-17 Z" fill="#ffffff" />
<path d="M0.9999999999999999,7.914306058462175e-17 A0.35374786722404983,0.35374786722404983,0,0,0,0.29250426555190023,3.58214412545082e-17 A0.35374786722404983,0.35374786722404983,0,0,0,0.9999999999999999,7.914306058462175e-17 L1.0,7.801675421093223e-17 A0.36294485671092647,0.36294485671092647,0,1,1,0.27411028657814707,3.3568828507129144e-17 A0.36294485671092647,0.36294485671092647,0,1,1,1.0,7.801675421093223e-17 Z" fill="#ffffff" />
<path d="M1.0,1.1756360144066307e-16 A0.5200101714122168,0.5200101714122168,0,0,0,-0.04002034282443373,5.3880722246259284e-17 A0.5200101714122168,0.5200101714122168,0,0,0,1.0,1.1756360144066307e-16 L1.0,1.1512051190138714e-16 A0.5299848414190176,0.5299848414190176,0,1,1,-0.059969682838035165,5.021608793734539e-17 A0.5299848414190176,0.5299848414190176,0,1,1,1.0,1.1512051190138714e-16 Z" fill="#ffffff" />
<path d="M1.0,7.656856267482327e-17 A0.68738511900683,0.68738511900683,0,0,0,-0.37477023801366,-7.611835902500415e-18 A0.68738511900683,0.68738511900683,0,0,0,1.0,7.656856267482327e-17 L1.0,7.447921810723162e-17 A0.6959155155629895,0.6959155155629895,0,1,1,-0.39183103112597895,-1.074585275388789e-17 A0.6959155155629895,0.6959155155629895,0,1,1,1.0,7.447921810723162e-17 Z" fill="#ffffff" />
<path d="M0.9999999999999999,3.5298260101993466e-17 A0.8558839163807495,0.8558839163807495,0,0,0,-0.711767832761499,-6.951728976174511e-17 A0.8558839163807495,0.8558839163807495,0,0,0,0.9999999999999999,3.5298260101993466e-17 L1.0,3.410692943488649e-17 A0.860747892949081,0.860747892949081,0,1,1,-0.7214957858981621,-7.130428576240558e-17 A0.860747892949081,0.860747892949081,0,1,1,1.0,3.410692943488649e-17 Z" fill="#ffffff" />
<circle cx="0" cy="0" r="1" stroke="#ffffff" stroke-width="0.016" fill="none" />
</svg>