<?xml version="1.0" encoding="UTF-8"?>
<svg xmlns="http://www.w3.org/2000/svg" xmlns:xlink="http://www.w3.org/1999/xlink"
     width="800" height="800.0" viewBox="-1.05 -1.05 2.1 2.1">
<defs>
</defs>
<path d="M-0.866025403784439,0.4999999999999994 A0.26794919243112236,0.26794919243112236,0,0,0,-1.0,-1.1102230246251565e-16" stroke="#b50e0e" stroke-width="0.015" fill="none" />
<path d="M-0.5000000000000012,0.8660254037844379 A0.577350269189625,0.577350269189625,0,0,0,-1.0,-0.0" stroke="#b50e0e" stroke-width="0.015" fill="none" />
<path d="M-4.440892098500626e-16,1.0 A0.9999999999999998,0.9999999999999998,0,0,0,-0.9999999999999999,-0.0" stroke="#b50e0e" stroke-width="0.015" fill="none" />
<path d="M0.49999999999999933,0.8660254037844393 A1.7320508075688759,1.7320508075688759,0,0,0,-1.0000000000000002,-2.220446049250313e-16" stroke="#b50e0e" stroke-width="0.015" fill="none" />
<path d="M0.8660254037844382,0.49999999999999956 A3.7320508075688807,3.7320508075688807,0,0,0,-0.9999999999999978,-0.0" stroke="#b50e0e" stroke-width="0.015" fill="none" />
<path d="M-1.0,-6.123233995736766e-17 L1.0,-6.123233995736766e-17" stroke="#b50e0e" stroke-width="0.015" fill="none" />
<path d="M0.8660254037844384,-0.5000000000000013 A3.732050807568867,3.732050807568867,0,0,1,-1.0000000000000007,-4.440892098500626e-16" stroke="#b50e0e" stroke-width="0.015" fill="none" />
<path d="M0.500000000000001,-0.8660254037844378 A1.7320508075688799,1.7320508075688799,0,0,1,-1.0000000000000004,-0.0" stroke="#b50e0e" stroke-width="0.015" fill="none" />
<path d="M0.0,-1.0 A0.9999999999999998,0.9999999999999998,0,0,1,-1.0000000000000002,-2.220446049250313e-16" stroke="#b50e0e" stroke-width="0.015" fill="none" />
<path d="M-0.500000000000001,-0.866025403784438 A0.577350269189625,0.577350269189625,0,0,1,-1.0,-1.1102230246251565e-16" stroke="#b50e0e" stroke-width="0.015" fill="none" />
<path d="M-0.8660254037844379,-0.5000000000000012 A0.26794919243112336,0.26794919243112336,0,0,1,-1.0,-1.1102230246251565e-16" stroke="#b50e0e" stroke-width="0.015" fill="none" />
<circle cx="-0.7250000000000001" cy="-8.878689293818312e-17" r="0.275" stroke-width="0.015" fill="none" stroke="#1010c8" />
<circle cx="-0.47500000000000003" cy="-5.817072295949928e-17" r="0.525" stroke-width="0.015" fill="none" stroke="#0b0b91" />
<circle cx="-0.22499999999999998" cy="-2.7554552980815445e-17" r="0.775" stroke-width="0.015" fill="none" stroke="#07075a" />
<circle cx="0" cy="0" r="1" stroke="#1f1f1f" stroke-width="0.018" fill="none" />
</svg>