<?xml version="1.0" encoding="UTF-8"?>
<svg xmlns="http://www.w3.org/2000/svg" xmlns:xlink="http://www.w3.org/1999/xlink"
     width="800" height="800.0" viewBox="-1.05 -1.05 2.1 2.1">
<defs>
</defs>
<path d="M0.8660254037844387,-0.4999999999999999 A0.27004058975838763,0.27004058975838763,0,0,0,1.0,-0.0 A0.2660895616774889,0.2660895616774889,0,0,1,0.8660254037844387,-0.4999999999999998 Z" fill="#d81717" />
<path d="M0.5000000000000003,-0.8660254037844384 A0.586887864359406,0.586887864359406,0,0,0,0.9999999999999999,-1.1102230246251565e-16 A0.5685406603820594,0.5685406603820594,0,0,1,0.5000000000000002,-0.8660254037844385 Z" fill="#d81717" />
<path d="M0.0,-1.0 A1.0286701434302405,1.0286701434302405,0,0,0,1.0,2.220446049250313e-16 A0.9736007533436039,0.9736007533436039,0,0,1,0.0,-1.0000000000000002 Z" fill="#d81717" />
<path d="M-0.5,-0.866025403784439 A1.8193761308259104,1.8193761308259104,0,0,0,0.9999999999999998,-0.0 A1.6539174517270014,1.6539174517270014,0,0,1,-0.4999999999999999,-0.8660254037844394 Z" fill="#d81717" />
<path d="M-0.8660254037844382,-0.49999999999999956 A4.160515409571897,4.160515409571897,0,0,0,1.0,-0.0 A3.3859168951292595,3.3859168951292595,0,0,1,-0.8660254037844379,-0.5 Z" fill="#d81717" />
<path d="M0.9999999999999909,-0.0 A36.37280256818321,36.37280256818321,0,0,1,-0.9999999999999937,-0.0 A36.372802568183864,36.372802568183864,0,0,1,1.0000000000001614,7.105427357601002e-15 Z" fill="#d81717" />
<path d="M-0.866025403784438,0.5 A3.3859168951292626,3.3859168951292626,0,0,1,1.0000000000000009,4.440892098500626e-16 A4.160515409571903,4.160515409571903,0,0,0,-0.8660254037844386,0.49999999999999956 Z" fill="#d81717" />
<path d="M-0.5000000000000007,0.866025403784438 A1.6539174517270043,1.6539174517270043,0,0,1,0.9999999999999992,-0.0 A1.819376130825913,1.819376130825913,0,0,0,-0.5000000000000007,0.8660254037844385 Z" fill="#d81717" />
<path d="M-3.3306690738754696e-16,1.0 A0.9736007533436042,0.9736007533436042,0,0,1,1.0,-2.220446049250313e-16 A1.02867014343024,1.02867014343024,0,0,0,-2.220446049250313e-16,0.9999999999999998 Z" fill="#d81717" />
<path d="M0.5000000000000002,0.8660254037844385 A0.5685406603820594,0.5685406603820594,0,0,1,1.0,-0.0 A0.586887864359406,0.586887864359406,0,0,0,0.5000000000000003,0.8660254037844384 Z" fill="#d81717" />
<path d="M0.8660254037844384,0.5000000000000006 A0.2660895616774894,0.2660895616774894,0,0,1,1.0,5.551115123125783e-17 A0.27004058975838807,0.27004058975838807,0,0,0,0.8660254037844384,0.5000000000000004 Z" fill="#d81717" />
<path d="M1.0,8.945417296882496e-17 A0.26955124505199024,0.26955124505199024,0,0,0,0.4608975098960195,5.64436660229146e-17 A0.26955124505199024,0.26955124505199024,0,0,0,1.0,8.945417296882496e-17 L1.0,8.811130443207054e-17 A0.280516598798796,0.280516598798796,0,1,1,0.43896680240240804,5.3757928949405764e-17 A0.280516598798796,0.280516598798796,0,1,1,1.0,8.811130443207054e-17 Z" fill="#1010c8" />
<path d="M0.9999999999999999,1.1802217512616378e-16 A0.5181379022574695,0.5181379022574695,0,0,0,-0.03627580451493906,5.456858277451036e-17 A0.5181379022574695,0.5181379022574695,0,0,0,0.9999999999999999,1.1802217512616378e-16 L1.0,1.1466302598134013e-16 A0.5318526694342688,0.5318526694342688,0,1,1,-0.06370533886853758,4.952985905727487e-17 A0.5318526694342688,0.5318526694342688,0,1,1,1.0,1.1466302598134013e-16 Z" fill="#0b0b91" />
<path d="M1.0,5.629249357412411e-17 A0.7701684534131917,0.7701684534131917,0,0,0,-0.5403369068263835,-3.8025939553549165e-17 A0.7701684534131917,0.7701684534131917,0,0,0,1.0,5.629249357412411e-17 L0.9999999999999999,5.3943481632503353e-17 A0.7797590224787223,0.7797590224787223,0,1,1,-0.5595180449574447,-4.154945746598028e-17 A0.7797590224787223,0.7797590224787223,0,1,1,0.9999999999999999,5.3943481632503353e-17 Z" fill="#07075a" />
<circle cx="0" cy="0" r="1" stroke="#1f1f1f" stroke-width="0.013199999999999998" fill="none" />
</svg>