<?xml version="1.0" encoding="UTF-8"?>
<svg xmlns="http://www.w3.org/2000/svg" xmlns:xlink="http://www.w3.org/1999/xlink"
     width="800" height="800.0" viewBox="-1.05 -1.05 2.1 2.1" fill="red">
<defs>
</defs>
<circle cx="0" cy="0" r="1" stroke="none" fill="#c81f32" />
<path d="M0.9510565162951536,-0.3090169943749472 A0.1589911697518572,0.1589911697518572,0,0,0,1.0,-2.498001805406602e-16 A0.15786192098967064,0.15786192098967064,0,0,1,0.9510565162951536,-0.3090169943749472 Z" fill="#ffffff" />
<path d="M0.8090169943749473,-0.5877852522924732 A0.3273956359949448,0.3273956359949448,0,0,0,1.0,5.551115123125783e-17 A0.3226430019872944,0.3226430019872944,0,0,1,0.8090169943749473,-0.5877852522924732 Z" fill="#ffffff" />
<path d="M0.5877852522924732,-0.8090169943749477 A0.5155655369291338,0.5155655369291338,0,0,0,1.0,2.220446049250313e-16 A0.5038773288948601,0.5038773288948601,0,0,1,0.5877852522924731,-0.8090169943749475 Z" fill="#ffffff" />
<path d="M0.30901699437494745,-0.9510565162951536 A0.7388048567345769,0.7388048567345769,0,0,0,1.0,-0.0 A0.7150366042727324,0.7150366042727324,0,0,1,0.30901699437494734,-0.9510565162951532 Z" fill="#ffffff" />
<path d="M2.220446049250313e-16,-0.9999999999999996 A1.0232788525411882,1.0232788525411882,0,0,0,1.0000000000000002,-0.0 A0.9782408591713947,0.9782408591713947,0,0,1,1.1102230246251565e-16,-0.9999999999999999 Z" fill="#ffffff" />
<path d="M-0.30901699437494723,-0.9510565162951536 A1.4207321193396438,1.4207321193396438,0,0,0,0.9999999999999998,-4.440892098500626e-16 A1.335372242691699,1.335372242691699,0,0,1,-0.3090169943749478,-0.9510565162951543 Z" fill="#ffffff" />
<path d="M-0.5877852522924736,-0.8090169943749481 A2.0538085552677225,2.0538085552677225,0,0,0,1.0000000000000016,-0.0 A1.8800784197968023,1.8800784197968023,0,0,1,-0.5877852522924728,-0.8090169943749475 Z" fill="#ffffff" />
<path d="M-0.8090169943749492,-0.5877852522924747 A3.3075207316817075,3.3075207316817075,0,0,0,1.0000000000000029,-4.440892098500626e-16 A2.8790758861419143,2.8790758861419143,0,0,1,-0.8090169943749477,-0.5877852522924738 Z" fill="#ffffff" />
<path d="M-0.9510565162951512,-0.30901699437494656 A7.361160029403694,7.361160029403694,0,0,0,0.9999999999999978,-0.0 A5.529732882310333,5.529732882310333,0,0,1,-0.9510565162951514,-0.3090169943749457 Z" fill="#ffffff" />
<path d="M0.999999999999831,-0.0 A44.45194419133116,44.45194419133116,0,0,1,-0.9999999999998342,-0.0 A44.45194419133214,44.45194419133214,0,0,1,1.0000000000000688,7.105427357601002e-15 Z" fill="#ffffff" />
<path d="M-0.9510565162951531,0.30901699437494745 A5.5297328823103316,5.5297328823103316,0,0,1,1.0000000000000007,-0.0 A7.361160029403746,7.361160029403746,0,0,0,-0.9510565162951505,0.3090169943749457 Z" fill="#ffffff" />
<path d="M-0.8090169943749469,0.5877852522924725 A2.879075886141915,2.879075886141915,0,0,1,1.0000000000000009,-0.0 A3.3075207316817083,3.3075207316817083,0,0,0,-0.8090169943749472,0.5877852522924729 Z" fill="#ffffff" />
<path d="M-0.5877852522924736,0.8090169943749472 A1.8800784197968041,1.8800784197968041,0,0,1,0.9999999999999994,2.220446049250313e-16 A2.0538085552677248,2.0538085552677248,0,0,0,-0.5877852522924745,0.8090169943749479 Z" fill="#ffffff" />
<path d="M-0.30901699437494734,0.9510565162951541 A1.335372242691698,1.335372242691698,0,0,1,0.9999999999999998,4.440892098500626e-16 A1.4207321193396438,1.4207321193396438,0,0,0,-0.30901699437494745,0.9510565162951534 Z" fill="#ffffff" />
<path d="M-2.220446049250313e-16,1.0 A0.9782408591713949,0.9782408591713949,0,0,1,1.0,-1.1102230246251565e-16 A1.023278852541188,1.023278852541188,0,0,0,0.0,0.9999999999999996 Z" fill="#ffffff" />
<path d="M0.3090169943749469,0.9510565162951536 A0.7150366042727329,0.7150366042727329,0,0,1,1.0000000000000002,-0.0 A0.7388048567345774,0.7388048567345774,0,0,0,0.309016994374947,0.9510565162951538 Z" fill="#ffffff" />
<path d="M0.5877852522924729,0.8090169943749472 A0.5038773288948599,0.5038773288948599,0,0,1,1.0,2.220446049250313e-16 A0.5155655369291333,0.5155655369291333,0,0,0,0.5877852522924731,0.8090169943749475 Z" fill="#ffffff" />
<path d="M0.8090169943749475,0.587785252292473 A0.32264300198729395,0.32264300198729395,0,0,1,1.0,2.7755575615628914e-16 A0.3273956359949443,0.3273956359949443,0,0,0,0.8090169943749475,0.587785252292473 Z" fill="#ffffff" />
<path d="M0.9510565162951532,0.3090169943749486 A0.15786192098967225,0.15786192098967225,0,0,1,1.0,-1.1102230246251565e-15 A0.15899116975185892,0.15899116975185892,0,0,0,0.9510565162951532,0.30901699437494856 Z" fill="#ffffff" />
<path d="M1.0,9.941622814624985e-17 A0.18820489127585754,0.18820489127585754,0,0,0,0.6235902174482848,7.63677763777644e-17 A0.18820489127585754,0.18820489127585754,0,0,0,1.0,9.941622814624985e-17 L1.0,9.8562414634546e-17 A0.19517680768717155,0.19517680768717155,0,1,1,0.6096463846256568,7.466014935435668e-17 A0.19517680768717155,0.19517680768717155,0,1,1,1.0,9.8562414634546e-17 Z" fill="#ffffff" />
<path d="M1.0,7.921302668866972e-17 A0.35317655062814096,0.35317655062814096,0,0,0,0.293646898743718,3.596137346260412e-17 A0.35317655062814096,0.35317655062814096,0,0,0,1.0,7.921302668866972e-17 L1.0,7.794594053517282e-17 A0.3635230942550798,0.3635230942550798,0,1,1,0.27295381148984044,3.3427201155610315e-17 A0.3635230942550798,0.3635230942550798,0,1,1,1.0,7.794594053517282e-17 Z" fill="#ffffff" />
<path d="M1.0,1.1771644467844818e-16 A0.5193861415372704,0.5193861415372704,0,0,0,-0.03877228307454067,5.4109987102936954e-17 A0.5193861415372704,0.5193861415372704,0,0,0,1.0,1.1771644467844818e-16 L1.0,1.14967993098344e-16 A0.5306075466886078,0.5306075466886078,0,1,1,-0.06121509337721548,4.998730973278068e-17 A0.5306075466886078,0.5306075466886078,0,1,1,1.0,1.14967993098344e-16 Z" fill="#ffffff" />
<path d="M1.0,7.670020450197449e-17 A0.6868476504598054,0.6868476504598054,0,0,0,-0.37369530091961084,-7.414373161773597e-18 A0.6868476504598054,0.6868476504598054,0,0,0,1.0,7.670020450197449e-17 L1.0,7.434970350081979e-17 A0.696444299072251,0.696444299072251,0,1,1,-0.3928885981445021,-1.0940124663505626e-17 A0.696444299072251,0.696444299072251,0,1,1,1.0,7.434970350081979e-17 Z" fill="#ffffff" />
<path d="M1.0,3.537385535319991e-17 A0.8555752753453952,0.8555752753453952,0,0,0,-0.7111505506907905,-6.940389688493545e-17 A0.8555752753453952,0.8555752753453952,0,0,0,1.0,3.537385535319991e-17 L1.0,3.4033601935814766e-17 A0.8610472751837089,0.8610472751837089,0,1,1,-0.7220945503674179,-7.141427701101317e-17 A0.8610472751837089,0.8610472751837089,0,1,1,1.0,3.4033601935814766e-17 Z" fill="#ffffff" />
<circle cx="0" cy="0" r="1" stroke="#4f0c12" stroke-width="0.018" fill="none" />
</svg>