<?xml version="1.0" encoding="UTF-8"?>
<svg xmlns="http://www.w3.org/2000/svg" xmlns:xlink="http://www.w3.org/1999/xlink"
     width="800" height="800.0" viewBox="-1.05 -1.05 2.1 2.1">
<defs>
</defs>
<circle cx="0" cy="0" r="1" stroke="black" stroke-width="0" fill="indigo" />
<path d="M-0.3090169943749471,-0.9510565162951536 A0.158779496078511,0.158779496078511,0,0,0,0.0,-1.0 A0.15802681001130456,0.15802681001130456,0,0,1,-0.3090169943749471,-0.9510565162951536 Z" fill="white" />
<path d="M-0.587785252292473,-0.8090169943749475 A0.3265478374292077,0.3265478374292077,0,0,0,0.0,-1.0 A0.3233801028085477,0.3233801028085477,0,0,1,-0.5877852522924729,-0.8090169943749475 Z" fill="white" />
<path d="M-0.8090169943749472,-0.5877852522924731 A0.5135075971985809,0.5135075971985809,0,0,0,-1.1102230246251565e-16,-1.0 A0.5057174882799482,0.5057174882799482,0,0,1,-0.8090169943749472,-0.5877852522924731 Z" fill="white" />
<path d="M-0.9510565162951538,-0.3090169943749471 A0.7346306721905452,0.7346306721905452,0,0,0,4.440892098500626e-16,-1.0 A0.7187904938756969,0.7187904938756969,0,0,1,-0.9510565162951538,-0.3090169943749471 Z" fill="white" />
<path d="M-1.0000000000000002,-0.0 A1.0153432215699272,1.0153432215699272,0,0,0,2.220446049250313e-16,-1.0000000000000002 A0.9853319683289884,0.9853319683289884,0,0,1,-1.0,-1.1102230246251565e-16 Z" fill="white" />
<path d="M-0.9510565162951541,0.30901699437494723 A1.405556594835516,1.405556594835516,0,0,0,2.220446049250313e-16,-0.9999999999999999 A1.3486910132481718,1.3486910132481718,0,0,1,-0.9510565162951538,0.30901699437494756 Z" fill="white" />
<path d="M-0.8090169943749477,0.5877852522924729 A2.022370417393079,2.022370417393079,0,0,0,0.0,-0.9999999999999998 A1.9066976264810056,1.9066976264810056,0,0,1,-0.8090169943749472,0.5877852522924728 Z" fill="white" />
<path d="M-0.5877852522924725,0.8090169943749457 A3.227011156373861,3.227011156373861,0,0,0,-4.440892098500626e-16,-0.9999999999999986 A2.942197401881286,2.942197401881286,0,0,1,-0.5877852522924742,0.8090169943749486 Z" fill="white" />
<path d="M-0.3090169943749448,0.9510565162951488 A6.975069424314267,6.975069424314267,0,0,0,1.7763568394002505e-15,-0.9999999999999944 A5.768160370161871,5.768160370161871,0,0,1,-0.3090169943749457,0.9510565162951482 Z" fill="white" />
<path d="M1.4210854715202004e-14,-0.9999999999998874 A66.67166659166828,66.67166659166828,0,0,1,1.4210854715202004e-14,0.9999999999998875 A66.67166659166827,66.67166659166827,0,0,1,-1.4210854715202004e-14,-0.9999999999998578 Z" fill="white" />
<path d="M0.30901699437494834,0.9510565162951564 A5.768160370161835,5.768160370161835,0,0,1,8.881784197001252e-16,-1.0000000000000007 A6.975069424314212,6.975069424314212,0,0,0,0.30901699437494745,0.9510565162951539 Z" fill="white" />
<path d="M0.5877852522924725,0.8090169943749472 A2.9421974018812893,2.9421974018812893,0,0,1,0.0,-1.0000000000000013 A3.2270111563738646,3.2270111563738646,0,0,0,0.5877852522924738,0.8090169943749488 Z" fill="white" />
<path d="M0.8090169943749468,0.5877852522924729 A1.9066976264810052,1.9066976264810052,0,0,1,2.220446049250313e-16,-1.0000000000000002 A2.0223704173930797,2.0223704173930797,0,0,0,0.809016994374947,0.5877852522924731 Z" fill="white" />
<path d="M0.9510565162951535,0.3090169943749478 A1.3486910132481718,1.3486910132481718,0,0,1,-2.220446049250313e-16,-1.0 A1.4055565948355158,1.4055565948355158,0,0,0,0.9510565162951538,0.3090169943749477 Z" fill="white" />
<path d="M0.9999999999999999,1.1102230246251565e-16 A0.9853319683289888,0.9853319683289888,0,0,1,0.0,-1.0000000000000002 A1.0153432215699276,1.0153432215699276,0,0,0,1.0000000000000002,4.440892098500626e-16 Z" fill="white" />
<path d="M0.9510565162951535,-0.30901699437494734 A0.7187904938756962,0.7187904938756962,0,0,1,0.0,-1.0000000000000002 A0.7346306721905441,0.7346306721905441,0,0,0,0.9510565162951536,-0.30901699437494756 Z" fill="white" />
<path d="M0.8090169943749475,-0.5877852522924731 A0.5057174882799481,0.5057174882799481,0,0,1,0.0,-1.0 A0.5135075971985807,0.5135075971985807,0,0,0,0.8090169943749475,-0.5877852522924731 Z" fill="white" />
<path d="M0.5877852522924734,-0.8090169943749472 A0.32338010280854806,0.32338010280854806,0,0,1,-1.6653345369377348e-16,-1.0 A0.3265478374292081,0.3265478374292081,0,0,0,0.5877852522924734,-0.8090169943749473 Z" fill="white" />
<path d="M0.3090169943749473,-0.9510565162951536 A0.15802681001130459,0.15802681001130459,0,0,1,1.3877787807814457e-16,-1.0 A0.15877949607851097,0.15877949607851097,0,0,0,0.30901699437494723,-0.9510565162951536 Z" fill="white" />
<path d="M0.8261898585768251,-0.17381014142317486 A0.8261898585768251,0.8261898585768251,0,0,0,-0.8261898585768251,-0.17381014142317497 A0.8261898585768251,0.8261898585768251,0,0,0,0.8261898585768251,-0.17381014142317486 L0.8304557987285184,-0.1695442012714815 A0.8304557987285184,0.8304557987285184,0,1,1,-0.8304557987285184,-0.16954420127148162 A0.8304557987285184,0.8304557987285184,0,1,1,0.8304557987285184,-0.1695442012714815 Z" fill="white" />
<path d="M0.6583006087562497,-0.34169939124375026 A0.6583006087562497,0.6583006087562497,0,0,0,-0.6583006087562497,-0.3416993912437503 A0.6583006087562497,0.6583006087562497,0,0,0,0.6583006087562497,-0.34169939124375026 L0.6650164389941103,-0.3349835610058896 A0.6650164389941103,0.6650164389941103,0,1,1,-0.6650164389941103,-0.33498356100588966 A0.6650164389941103,0.6650164389941103,0,1,1,0.6650164389941103,-0.3349835610058896 Z" fill="white" />
<path d="M0.4912507264941276,-0.5087492735058724 A0.49125072649412754,0.49125072649412754,0,0,0,-0.4912507264941275,-0.5087492735058725 A0.49125072649412754,0.49125072649412754,0,0,0,0.4912507264941276,-0.5087492735058724 L0.49874983592853467,-0.5012501640714654 A0.4987498359285346,0.4987498359285346,0,1,1,-0.49874983592853456,-0.5012501640714655 A0.4987498359285346,0.4987498359285346,0,1,1,0.49874983592853467,-0.5012501640714654 Z" fill="white" />
<path d="M0.32503393281984994,-0.6749660671801501 A0.3250339328198499,0.3250339328198499,0,0,0,-0.3250339328198498,-0.6749660671801501 A0.3250339328198499,0.3250339328198499,0,0,0,0.32503393281984994,-0.6749660671801501 L0.331649769306356,-0.6683502306936441 A0.3316497693063559,0.3316497693063559,0,1,1,-0.33164976930635587,-0.6683502306936441 A0.3316497693063559,0.3316497693063559,0,1,1,0.331649769306356,-0.6683502306936441 Z" fill="white" />
<path d="M0.15964401123429972,-0.8403559887657004 A0.15964401123429967,0.15964401123429967,0,0,0,-0.1596440112342996,-0.8403559887657004 A0.15964401123429967,0.15964401123429967,0,0,0,0.15964401123429972,-0.8403559887657004 L0.16370995638377583,-0.8362900436162242 A0.16370995638377578,0.16370995638377578,0,1,1,-0.16370995638377572,-0.8362900436162242 A0.16370995638377578,0.16370995638377578,0,1,1,0.16370995638377583,-0.8362900436162242 Z" fill="white" />
</svg>